<svg width="32" height="32" viewBox="0 0 32 32" fill="none" xmlns="http://www.w3.org/2000/svg">
<mask id="path-1-inside-1_3_11" fill="white">
<path d="M2 12V11.5V10.5L2.5 11L3.5 13L6 14L7.5 13.5L9 12L10.5 11L12.5 10.5H14L15.5 11.5L16.5 11L17 10.5L19 10L21 10.5L22.5 12L25 14L27 13.5L28.5 12.5L30 10L30.5 13L30 16.5L26.5 20.5L22.5 21.5L18.5 20L16 17.5L15.5 18L13.5 20L10.5 21H7.5L4 19L2.5 16.5L2 14.5V12Z"/>
</mask>
<path d="M2 14.5H-48V20.6553L-46.5071 26.6268L2 14.5ZM2.5 16.5L-46.0071 28.6268L-44.2026 35.8449L-40.3746 42.2248L2.5 16.5ZM4 19L-38.8746 44.7248L-32.1519 55.9293L-20.8069 62.4122L4 19ZM7.5 21L-17.3069 64.4122L-5.77822 71H7.5V21ZM10.5 21V71H18.6139L26.3114 68.4342L10.5 21ZM13.5 20L29.3114 67.4342L40.5091 63.7016L48.8553 55.3553L13.5 20ZM16 17.5L51.3553 -17.8553L16 -53.2107L-19.3553 -17.8553L16 17.5ZM18.5 20L-16.8553 55.3553L-9.19705 63.0136L0.943828 66.8165L18.5 20ZM22.5 21.5L4.94383 68.3165L19.5221 73.7833L34.6268 70.0071L22.5 21.5ZM26.5 20.5L38.6268 69.0071L53.8177 65.2094L64.1288 53.4252L26.5 20.5ZM30 16.5L67.6288 49.4252L77.3992 38.2591L79.4975 23.5711L30 16.5ZM30.5 13L79.9975 20.0711L81.0917 12.4118L79.8197 4.78005L30.5 13ZM30 10L79.3197 1.78005L56.9942 -132.173L-12.8746 -15.7248L30 10ZM28.5 12.5L56.235 54.1025L65.59 47.8658L71.3746 38.2248L28.5 12.5ZM27 13.5L39.1268 62.0071L47.5289 59.9066L54.735 55.1025L27 13.5ZM25 14L-6.23475 53.0434L13.1025 68.5132L37.1268 62.5071L25 14ZM22.5 12L-12.8553 47.3553L-10.8972 49.3135L-8.73475 51.0434L22.5 12ZM21 10.5L56.3553 -24.8553L46.5625 -34.6482L33.1268 -38.0071L21 10.5ZM19 10L31.1268 -38.5071L19 -41.5388L6.87322 -38.5071L19 10ZM17 10.5L4.87322 -38.0071L-8.56248 -34.6482L-18.3553 -24.8553L17 10.5ZM16.5 11L38.8607 55.7214L46.118 52.0927L51.8553 46.3553L16.5 11ZM15.5 11.5L-12.235 53.1025L11.9079 69.1978L37.8607 56.2214L15.5 11.5ZM14 10.5L41.735 -31.1025L29.1388 -39.5H14V10.5ZM12.5 10.5V-39.5H6.34472L0.373219 -38.0071L12.5 10.5ZM10.5 11L-1.62678 -37.5071L-10.0289 -35.4066L-17.235 -30.6025L10.5 11ZM9 12L-18.735 -29.6025L-22.8545 -26.8562L-26.3553 -23.3553L9 12ZM7.5 13.5L23.3114 60.9342L34.5091 57.2016L42.8553 48.8553L7.5 13.5ZM6 14L-12.5695 60.4238L4.43588 67.226L21.8114 61.4342L6 14ZM3.5 13L-41.2214 35.3607L-32.7198 52.3637L-15.0695 59.4238L3.5 13ZM2.5 11L47.2214 -11.3607L43.5927 -18.618L37.8553 -24.3553L2.5 11ZM2 10.5L37.3553 -24.8553L-48 -110.211V10.5H2ZM-48 11.5V12H52V11.5H-48ZM-48 12V14.5H52V12H-48ZM-46.5071 26.6268L-46.0071 28.6268L51.0071 4.37322L50.5071 2.37322L-46.5071 26.6268ZM-40.3746 42.2248L-38.8746 44.7248L46.8746 -6.72479L45.3746 -9.22479L-40.3746 42.2248ZM-20.8069 62.4122L-17.3069 64.4122L32.3069 -22.4122L28.8069 -24.4122L-20.8069 62.4122ZM7.5 71H10.5V-29H7.5V71ZM26.3114 68.4342L29.3114 67.4342L-2.31139 -27.4342L-5.31139 -26.4342L26.3114 68.4342ZM48.8553 55.3553L50.8553 53.3553L-19.8553 -17.3553L-21.8553 -15.3553L48.8553 55.3553ZM50.8553 53.3553L51.3553 52.8553L-19.3553 -17.8553L-19.8553 -17.3553L50.8553 53.3553ZM-19.3553 52.8553L-16.8553 55.3553L53.8553 -15.3553L51.3553 -17.8553L-19.3553 52.8553ZM0.943828 66.8165L4.94383 68.3165L40.0562 -25.3165L36.0562 -26.8165L0.943828 66.8165ZM34.6268 70.0071L38.6268 69.0071L14.3732 -28.0071L10.3732 -27.0071L34.6268 70.0071ZM64.1288 53.4252L67.6288 49.4252L-7.62883 -16.4252L-11.1288 -12.4252L64.1288 53.4252ZM79.4975 23.5711L79.9975 20.0711L-18.9975 5.92893L-19.4975 9.42893L79.4975 23.5711ZM79.8197 4.78005L79.3197 1.78005L-19.3197 18.2199L-18.8197 21.2199L79.8197 4.78005ZM-12.8746 -15.7248L-14.3746 -13.2248L71.3746 38.2248L72.8746 35.7248L-12.8746 -15.7248ZM0.76499 -29.1025L-0.73501 -28.1025L54.735 55.1025L56.235 54.1025L0.76499 -29.1025ZM14.8732 -35.0071L12.8732 -34.5071L37.1268 62.5071L39.1268 62.0071L14.8732 -35.0071ZM56.2348 -25.0434L53.7348 -27.0434L-8.73475 51.0434L-6.23475 53.0434L56.2348 -25.0434ZM57.8553 -23.3553L56.3553 -24.8553L-14.3553 45.8553L-12.8553 47.3553L57.8553 -23.3553ZM33.1268 -38.0071L31.1268 -38.5071L6.87322 58.5071L8.87322 59.0071L33.1268 -38.0071ZM6.87322 -38.5071L4.87322 -38.0071L29.1268 59.0071L31.1268 58.5071L6.87322 -38.5071ZM-18.3553 -24.8553L-18.8553 -24.3553L51.8553 46.3553L52.3553 45.8553L-18.3553 -24.8553ZM-5.86068 -33.7214L-6.86068 -33.2214L37.8607 56.2214L38.8607 55.7214L-5.86068 -33.7214ZM43.235 -30.1025L41.735 -31.1025L-13.735 52.1025L-12.235 53.1025L43.235 -30.1025ZM14 -39.5H12.5V60.5H14V-39.5ZM0.373219 -38.0071L-1.62678 -37.5071L22.6268 59.5071L24.6268 59.0071L0.373219 -38.0071ZM-17.235 -30.6025L-18.735 -29.6025L36.735 53.6025L38.235 52.6025L-17.235 -30.6025ZM-26.3553 -23.3553L-27.8553 -21.8553L42.8553 48.8553L44.3553 47.3553L-26.3553 -23.3553ZM-8.31139 -33.9342L-9.81139 -33.4342L21.8114 61.4342L23.3114 60.9342L-8.31139 -33.9342ZM24.5695 -32.4238L22.0695 -33.4238L-15.0695 59.4238L-12.5695 60.4238L24.5695 -32.4238ZM48.2214 -9.36068L47.2214 -11.3607L-42.2214 33.3607L-41.2214 35.3607L48.2214 -9.36068ZM37.8553 -24.3553L37.3553 -24.8553L-33.3553 45.8553L-32.8553 46.3553L37.8553 -24.3553ZM-48 10.5V11.5H52V10.5H-48Z" fill="black" mask="url(#path-1-inside-1_3_11)"/>
<path d="M30.3875 9.48719C30.2557 9.13534 29.9233 8.94128 29.58 9.01586C29.2346 9.09038 28.9956 9.40893 28.9987 9.78989L28.9988 9.79922C28.9988 11.7462 27.5353 13.3302 25.7364 13.3302C24.6428 13.3302 23.6271 12.7413 23.0196 11.7548C23.0174 11.7511 23.0151 11.7474 23.0126 11.7438L22.8788 11.5372C22.8757 11.5324 22.8725 11.5276 22.8692 11.523C21.9575 10.206 20.5056 9.45257 18.9853 9.51053C17.8756 9.55207 16.8151 10.0335 15.9999 10.851C15.1848 10.0335 14.1242 9.55207 13.0146 9.51053C11.4955 9.4525 10.0424 10.206 9.1307 11.523C9.12742 11.5277 9.12426 11.5324 9.12109 11.5372L8.98727 11.7438C8.98492 11.7475 8.98264 11.7511 8.98023 11.7548C8.37273 12.7413 7.35713 13.3302 6.26348 13.3302C4.46465 13.3302 3.00109 11.7462 3.00109 9.79922V9.79034C3.00432 9.409 2.76525 9.09044 2.41984 9.0158C2.07613 8.94134 1.74414 9.13534 1.61242 9.487C1.20613 10.5725 1 11.7216 1 12.9025C1 15.342 1.89396 17.6388 3.51725 19.3699C5.14135 21.1017 7.27768 22.0336 9.53277 21.9989C12.0721 21.958 14.4389 20.6797 15.9999 18.5416C17.5609 20.6797 19.9279 21.958 22.4671 21.9989C22.5095 21.9996 22.5517 22 22.5941 22C24.8024 22 26.8892 21.0691 28.4827 19.3699C30.106 17.6388 31 15.342 31 12.9025C31 11.7216 30.7939 10.5725 30.3875 9.48719ZM27.7519 18.5669C26.328 20.0851 24.4551 20.9015 22.4826 20.872C20.0401 20.8326 17.7793 19.4859 16.4352 17.2697C16.339 17.1111 16.1754 17.0154 15.9999 17.0154C15.8245 17.0154 15.6609 17.111 15.5646 17.2697C14.2205 19.4858 11.9597 20.8325 9.51725 20.872C7.54252 20.9013 5.67191 20.0852 4.24803 18.5669C2.82508 17.0495 2.04139 15.0377 2.04139 12.9025C2.04139 12.3598 2.09102 11.8249 2.18945 11.3017C2.76824 13.1352 4.376 14.4573 6.26354 14.4573C7.704 14.4573 9.0417 13.683 9.84326 12.3859L9.96895 12.192C10.6768 11.1741 11.8016 10.5925 12.9787 10.6369C13.9858 10.6747 14.9419 11.1821 15.6021 12.029C15.701 12.156 15.8467 12.2293 16.0001 12.2293C16.1536 12.2293 16.2992 12.156 16.3981 12.029C17.0583 11.1821 18.0145 10.6747 19.0214 10.6369C20.2003 10.5938 21.3233 11.1742 22.0312 12.192L22.1569 12.3859C22.9584 13.6832 24.2962 14.4573 25.7366 14.4573C27.6242 14.4573 29.2319 13.1352 29.8107 11.3017C29.9092 11.8248 29.9588 12.3597 29.9588 12.9025C29.9586 15.0377 29.1749 17.0495 27.7519 18.5669Z" fill="white"/>
</svg>
