<svg width="48" height="48" viewBox="0 0 48 48" fill="none" xmlns="http://www.w3.org/2000/svg">
<rect width="48" height="48" fill="white"/>
<path d="M43.1474 27.3352C43.8258 27.444 44.4274 27.2968 45.0034 26.8552C44.7666 27.3992 43.845 27.7832 42.693 27.8472C43.1474 28.0136 43.557 27.988 43.9666 27.8792C44.3762 27.7704 44.7218 27.5464 45.0866 27.2648C44.8178 27.9368 43.8002 28.6792 42.4498 28.372C42.6226 28.532 43.045 28.6792 43.3778 28.6408C43.7106 28.6024 44.037 28.5192 44.3826 28.4552C44.037 28.724 43.557 28.884 42.7506 28.9992C43.4034 29.204 43.9858 28.9288 44.581 28.82C43.7362 29.2808 42.8594 29.492 41.9122 29.1272C42.3794 29.4664 42.9234 29.4408 43.4994 29.4792C43.2242 29.6264 42.949 29.588 42.6994 29.6712C42.981 29.7224 43.269 29.7544 43.5506 29.6968C43.8322 29.6392 44.101 29.5432 44.3826 29.4856C43.6146 29.9528 42.8274 30.3368 41.8802 30.1512C42.405 30.42 42.9362 30.2728 43.4674 30.2408C42.8274 30.5352 42.1746 30.6248 41.4386 30.3176C41.6818 30.5928 41.9762 30.6504 42.213 30.804C41.701 30.9384 40.4274 30.3112 39.2498 29.3448C39.5058 29.8376 39.8514 30.1704 40.261 30.4456C40.6706 30.7208 41.1378 30.836 41.605 30.9768C41.413 30.9576 41.221 30.9448 41.0354 30.9064C40.8306 30.868 40.6258 30.8232 40.4274 30.7656C40.2418 30.708 40.0626 30.6184 39.8706 30.5608C40.1074 30.8104 40.421 30.9384 40.7858 31.0856C40.2162 31.2264 39.2114 30.7016 38.245 29.8056C38.3154 30.4328 38.7378 30.8104 39.1346 31.2136C38.5906 31.0472 38.149 30.74 37.8226 30.2664C37.9122 30.6184 38.1234 30.8936 38.3538 31.156C37.8418 30.932 37.4834 30.548 37.2146 30.0616C37.125 30.3496 37.1634 30.4456 37.6882 31.188C37.2722 31.2072 36.7538 30.5096 36.485 29.556C36.0754 30.0488 36.1714 30.6696 36.0306 31.2264C35.8322 30.7144 35.8642 30.1832 35.909 29.652C35.653 30.1192 35.5698 30.6312 35.4418 31.1432C35.429 31.0472 35.4034 30.9512 35.397 30.8552C35.3906 30.7528 35.397 30.644 35.397 30.4968C35.269 30.6632 35.2754 30.8488 35.1474 30.996C35.0898 30.836 35.1602 30.7016 35.1218 30.5544C34.9874 30.7144 34.981 30.932 34.789 31.124C34.8914 30.5608 35.077 30.0616 34.9234 29.5048C34.6226 30.132 34.2642 30.676 33.605 30.932C33.8738 30.6248 34.1234 30.3112 34.2642 29.9272C34.2898 29.8568 34.3474 29.7864 34.3026 29.6648C34.0658 30.0424 33.765 30.3368 33.3874 30.5416C33.6626 30.1832 33.989 29.8568 34.0722 29.3832C33.6754 30.004 33.2082 30.4968 32.3826 30.4328C32.901 30.356 33.2594 30.0616 33.509 29.5368C33.2978 29.6968 33.189 29.8824 32.9586 30.0168C33.0802 29.8248 33.1698 29.684 33.2594 29.5432C32.933 29.78 32.6194 30.0296 32.1906 30.068C32.6834 29.812 33.0162 29.4408 33.1442 28.8968C33.0162 29.0504 32.9074 29.2168 32.773 29.364C32.6194 29.5176 32.4658 29.6712 32.2802 29.7928C32.1074 29.908 31.941 30.0424 31.6914 29.9912C32.101 29.7416 32.4594 29.4472 32.6258 28.9736C32.261 29.3256 31.8258 29.5368 31.333 29.6264C31.5442 29.4664 31.8258 29.428 31.9986 29.1976C31.5442 29.4408 31.0642 29.4728 30.565 29.4472C31.0258 29.3 31.5186 29.2424 31.9282 28.8392C31.5122 29.0056 31.1282 29.0312 30.7378 28.98C31.2306 28.9032 31.7106 28.8072 32.0178 28.3592C31.7554 28.4552 31.5314 28.6536 31.2306 28.6728C31.2306 28.5832 31.2946 28.5896 31.3394 28.564C31.429 28.5128 31.5314 28.4808 31.6146 28.4168C31.7234 28.34 31.8258 28.2184 31.8002 28.0968C31.781 27.9816 31.621 28.02 31.525 28.0072C31.1218 27.9432 30.725 27.956 30.3154 27.988C29.861 28.0264 29.5666 28.3272 29.2274 28.5832C29.2402 28.4104 29.349 28.2312 29.5538 28.0584C29.9442 27.7256 30.4114 27.5976 30.9106 27.5464C31.6082 27.476 32.2674 27.6808 32.9266 27.8664C34.277 28.244 35.6466 28.4936 37.0546 28.4616C38.5842 28.4296 40.0434 28.1032 41.4002 27.38C41.7458 27.1944 42.0338 26.932 42.3282 26.6888C42.4306 26.6056 42.5266 26.5544 42.6482 26.5544C43.6274 26.5736 44.4786 26.2408 45.2402 25.5944C45.253 25.7096 45.2018 25.78 45.157 25.844C44.7154 26.42 44.1906 26.8808 43.4866 27.1048C43.3522 27.1304 43.2306 27.188 43.1474 27.3352ZM16.0626 27.5272C15.397 27.4696 14.7698 27.6744 14.1426 27.8472C12.2738 28.372 10.3858 28.6408 8.45298 28.3016C7.09618 28.0648 5.80978 27.6424 4.75378 26.6952C4.62578 26.58 4.49138 26.5288 4.31858 26.5288C3.63378 26.5352 2.99378 26.3624 2.41138 26.004C2.20658 25.8824 2.02098 25.7352 1.78418 25.5752C1.80978 25.6456 1.81618 25.6712 1.82898 25.6968C1.84818 25.7352 1.86098 25.7672 1.88658 25.7992C2.32178 26.3944 2.85938 26.8488 3.56978 27.0792C3.70418 27.124 3.81938 27.1752 3.90898 27.3224C3.22418 27.4376 2.62258 27.2712 2.05938 26.9064C2.67378 27.5656 3.40978 27.8984 4.31218 27.8408C3.42898 28.1288 2.68018 27.8088 1.96978 27.2968C2.23218 27.7768 2.61618 28.1096 3.12178 28.2824C3.60818 28.4488 4.11378 28.5064 4.61938 28.3592C3.99218 28.7816 3.33298 28.6024 2.68018 28.4552C3.17298 28.7624 3.69138 28.9864 4.28018 28.9864C3.64658 29.1912 3.07058 28.9288 2.47538 28.8136C3.32018 29.268 4.19698 29.492 5.15058 29.1144C4.68338 29.4728 4.12658 29.4216 3.59538 29.492C3.83858 29.5944 4.10738 29.5816 4.35058 29.652C3.76818 29.812 3.22418 29.62 2.67378 29.4728C3.44178 29.9464 4.23538 30.324 5.17618 30.1384C4.65138 30.4136 4.11378 30.26 3.57618 30.228C3.88338 30.3944 4.21618 30.4584 4.55538 30.4968C4.90098 30.5352 5.22738 30.4328 5.59218 30.3176C5.36818 30.5736 5.06098 30.6184 4.84978 30.8104C5.96978 30.6376 6.92978 30.1384 7.74898 29.3704C7.23698 30.2856 6.42418 30.7464 5.41938 30.932C6.03378 30.9064 6.62258 30.8104 7.17298 30.5224C6.93618 30.7912 6.60978 30.9 6.32178 31.0856C6.80178 31.0408 7.25618 30.9256 7.67858 30.7016C8.10738 30.4712 8.45938 30.1512 8.78578 29.7928C8.76018 30.0872 8.65138 30.3496 8.47858 30.5672C8.29938 30.7848 8.08818 30.9768 7.88978 31.1752C8.48498 31.0152 8.93298 30.676 9.25938 30.164C9.15058 30.5352 8.93938 30.8424 8.68978 31.124C9.21458 30.9064 9.56018 30.5032 9.84818 29.9976C9.93138 30.5224 9.61778 30.836 9.36818 31.188C10.0402 30.8424 10.4114 30.2792 10.5458 29.5176C10.9618 30.036 10.8722 30.6504 11.013 31.2136C11.1986 30.6952 11.1794 30.1704 11.1282 29.6392C11.3906 30.1 11.461 30.6184 11.5634 31.124C11.6594 30.932 11.6274 30.7272 11.6594 30.4776C11.7618 30.6568 11.7554 30.836 11.9154 30.9768C11.9154 30.804 11.9154 30.676 11.9154 30.4968C12.0434 30.708 12.0626 30.9192 12.2482 31.0984C12.1842 30.7912 12.1266 30.5352 12.0754 30.2792C12.0242 30.0232 12.037 29.7608 12.101 29.4792C12.6706 30.484 13.0738 30.9064 13.4578 30.8808C13.0994 30.5416 12.8178 30.1704 12.7282 29.6776C12.9714 30.0296 13.2658 30.3176 13.6434 30.5224C13.509 30.3304 13.3554 30.1576 13.2146 29.972C13.061 29.7608 12.9714 29.5112 12.965 29.3384C13.4706 30.1704 14.0082 30.5096 14.6546 30.42C13.9634 30.1896 13.7138 29.9976 13.5666 29.5304C13.7202 29.684 13.8354 29.844 14.053 29.972C13.9314 29.7736 13.8482 29.6264 13.7586 29.4792C13.9314 29.5944 14.0786 29.7416 14.2578 29.844C14.4434 29.9464 14.6162 30.0744 14.8658 30.036C14.3538 29.7928 14.021 29.4152 13.8546 28.8136C14.629 29.7608 14.9874 30.036 15.3586 29.9464C14.9234 29.6968 14.5522 29.4024 14.3986 28.916C14.7634 29.2872 15.205 29.5112 15.717 29.5944C15.461 29.4408 15.1602 29.3704 14.9362 29.108C15.7106 29.4216 16.2226 29.5176 16.4722 29.3896C16.3058 29.3512 16.1458 29.3064 15.9922 29.2744C15.8322 29.2424 15.6786 29.1912 15.5378 29.1144C15.4034 29.044 15.269 28.9736 15.173 28.8456C15.5378 28.98 15.909 28.9992 16.2866 28.948C15.8066 28.8648 15.3266 28.7688 15.0322 28.3208C15.2882 28.4296 15.5186 28.6152 15.813 28.6152C15.7298 28.5448 15.6402 28.5 15.5442 28.4552C15.4226 28.3976 15.3394 28.308 15.2754 28.1864C15.2178 28.0712 15.2242 28.02 15.3714 27.9944C15.6402 27.9496 15.9154 27.9176 16.1906 27.924C16.7218 27.924 17.2402 28.0008 17.637 28.4104C17.6946 28.468 17.765 28.5064 17.829 28.5576C17.8354 28.4808 17.8162 28.436 17.7906 28.3976C17.4002 27.7704 16.7602 27.5848 16.0626 27.5272Z" fill="black"/>
<path d="M18.8851 21.447C18.8083 21.7798 18.6099 22.0166 18.4051 22.311C18.6547 22.2342 18.7443 22.055 18.8723 21.8822C18.8915 22.3622 18.5395 22.6822 18.0979 22.6118C17.9443 22.5862 17.8035 22.5286 17.6691 22.4518C15.6275 21.3574 13.5347 20.3718 11.3459 19.623C10.8851 19.463 10.4243 19.3094 9.93153 19.2198C9.98273 19.2518 10.0275 19.2838 10.0531 19.303C6.59073 18.5158 3.58273 19.4246 1.02273 21.895C0.977926 21.8054 1.00993 21.7734 1.02913 21.7478C1.93153 20.6342 2.84033 19.5142 4.01153 18.6566C4.74753 18.1126 5.55393 17.6454 6.42433 17.351C7.21793 17.0822 8.31233 16.8454 9.13153 17.127C9.24673 17.1654 9.36193 17.2038 9.48353 17.1974C9.82913 17.191 10.1299 17.4086 10.5075 17.3574C10.4307 17.4598 10.3411 17.3958 10.2707 17.447C10.2963 17.4662 10.3155 17.4854 10.3411 17.4918C12.0819 17.8694 13.7203 18.5478 15.3651 19.2134C16.0755 19.5014 16.7731 19.815 17.4643 20.1414C17.5731 20.1926 17.6819 20.3334 17.8355 20.2246C17.8419 20.2182 17.8867 20.2566 17.9123 20.2758C18.3027 20.6342 18.3027 20.6342 18.5139 21.1462C18.5331 21.0694 18.5459 21.0182 18.5651 20.9414C18.6675 21.1782 18.7059 21.3958 18.6611 21.6262C18.7763 21.6134 18.7571 21.479 18.8851 21.447ZM45.2211 20.7878C44.0371 19.3734 42.6995 18.151 40.9459 17.479C40.1843 17.1846 39.4227 16.9222 38.5779 17.0694C37.9251 17.1782 37.2723 17.2806 36.6195 17.4022C36.6643 17.4214 36.7091 17.4342 36.7539 17.4534C35.2819 17.895 33.8163 18.3622 32.3891 18.9382C31.3587 19.3542 30.3091 20.103 29.1955 20.2438C29.0099 20.4806 28.6899 20.6086 28.6259 20.9478C28.6131 21.0118 28.6067 21.0758 28.5427 21.1398C28.5363 21.0694 28.5299 21.0054 28.5171 20.903C28.4019 21.1718 28.3635 21.3958 28.3891 21.6454C28.2867 21.6006 28.2995 21.4854 28.1715 21.4598C28.2483 21.7862 28.4531 22.0294 28.6451 22.3046C28.3891 22.2598 28.3315 22.0294 28.1587 21.895C28.2931 22.5926 28.7155 22.8038 29.3235 22.4966C29.8611 22.2214 30.3987 21.9398 30.9363 21.671C32.8435 20.711 34.8147 19.8854 36.8627 19.2646C36.9395 19.239 37.0163 19.2006 37.1059 19.2262C37.0803 19.2966 36.9971 19.2838 36.9907 19.3478C37.0099 19.3478 37.0227 19.3542 37.0419 19.3542C37.0867 19.3414 37.1379 19.335 37.1827 19.3158C37.7267 19.143 38.2835 19.015 38.8595 19.015C38.8915 19.015 38.9235 19.0086 38.9555 19.0086C39.3395 19.047 39.7299 19.079 40.1075 19.0918C40.6387 19.1046 41.1507 19.1942 41.6563 19.335C43.2563 19.7766 44.6707 20.551 45.8419 21.7414C45.8995 21.799 45.9443 21.9142 46.1043 21.8438C45.7971 21.479 45.5155 21.127 45.2211 20.7878Z" fill="black"/>
</svg>
