<svg width="363" height="190" viewBox="0 0 363 190" fill="none" xmlns="http://www.w3.org/2000/svg">
<path d="M268.759 1.34221C274.199 2.56513 278.21 4.56356 281.827 7.90422C290.093 15.5102 292.767 30.1554 288.33 43.3987C286.203 49.7818 283.529 53.9278 278.423 58.9089C271.737 65.4113 263.319 70.1837 251.77 74.0314C247.303 75.4929 248.944 75.2245 255.63 73.3752C267.27 70.124 277.177 65.7692 286.568 59.7143C290.488 57.2088 292.646 55.6279 300.851 49.3344C303.191 47.5447 305.926 45.5463 306.929 44.9199C307.932 44.2637 308.814 43.7268 308.844 43.6672C308.905 43.6373 308.601 42.5636 308.145 41.281C307.446 39.2826 307.355 38.5965 307.446 36.2402C307.537 33.8242 307.659 33.2873 308.662 31.2888C309.391 29.887 311.093 27.5604 313.342 24.9356C319.936 17.1805 320.787 15.8681 321.213 13.0643C321.334 12.2888 321.608 11.4238 321.821 11.1554C322.155 10.6782 322.246 10.708 322.732 11.4537C323.219 12.1994 323.31 13.0345 323.31 18.5824C323.34 24.3092 323.279 25.1146 322.641 27.2323C321.365 31.5871 318.69 35.9717 315.044 39.73C314.132 40.6844 313.524 41.4599 313.706 41.4599C313.889 41.4599 315.439 41.1318 317.171 40.7143C321.091 39.7598 324.981 39.4913 328.507 39.9388C329.996 40.1475 331.455 40.3563 331.728 40.4458C332.154 40.5651 332.214 40.1177 332.214 36.9262C332.214 32.9293 332.579 31.4678 334.038 29.5887C335.497 27.7096 339.143 26.7253 339.964 28.0377C340.329 28.5746 340.359 28.5746 340.724 27.7394C340.997 27.0832 341.301 26.8446 341.879 26.8446C342.395 26.8446 342.76 26.6059 343.003 26.0989C343.398 25.2339 344.31 25.1146 344.735 25.8603C344.978 26.3077 345.13 26.3375 345.647 26.0094C346.68 25.4129 346.893 25.5918 346.893 26.9639C346.893 27.7096 347.045 28.3956 347.197 28.4851C347.653 28.7535 347.562 29.5589 347.015 29.9764C346.619 30.2449 346.498 30.9011 346.468 32.9293C346.437 34.6593 346.316 35.584 346.042 35.7629C345.769 35.9121 345.86 36.1507 346.407 36.6578C347.015 37.2245 347.075 37.4631 346.893 38.3877C346.468 40.237 344.583 41.6389 341.605 42.3846L340.207 42.7127L342.517 43.7268C344.583 44.5918 346.194 45.5165 344.614 44.8901C341.058 43.5479 338.171 42.653 337.229 42.653C336.621 42.653 335.223 42.3846 334.129 42.0267C332.701 41.5793 331.029 41.3705 328.051 41.281L323.948 41.1318L326.075 42.146C328.993 43.5479 330.604 44.7708 331.485 46.292C332.579 48.1413 332.731 49.2449 332.154 51.1538C331.758 52.5855 331.576 52.7943 330.938 52.7943C330.087 52.7943 329.935 53.2417 330.664 53.5102C331.059 53.6593 331.12 53.9278 330.938 54.7629C330.786 55.5683 330.877 55.9859 331.272 56.4034C331.88 57.0596 331.637 57.865 330.786 57.865C330.3 57.865 330.178 58.0738 330.178 58.7598C330.178 59.7739 329.935 59.8336 328.628 59.2072C328.142 58.9388 327.595 58.8194 327.443 58.9089C326.926 59.237 325.923 58.73 325.923 58.1931C325.923 57.8053 325.224 57.2983 323.644 56.5526C322.398 55.956 321.274 55.2402 321.091 54.9419C320.848 54.5243 320.666 54.4945 319.906 54.7629C319.116 55.0612 318.903 55.0016 318.083 54.2559C316.837 53.1224 316.381 51.6311 316.594 49.394C316.837 47.0078 317.84 44.4725 319.146 42.9513C319.754 42.2653 320.18 41.6687 320.088 41.6091C320.028 41.5494 318.751 41.7582 317.262 42.0863C312.035 43.1899 307.476 45.8147 292.281 56.4034C273.682 69.3485 270.035 71.168 256.481 74.449C245.145 77.1632 235.633 78.3862 211.655 80.2355C180.747 82.5918 176.523 83.1884 151.481 88.7362C132.305 93.0016 126.014 94.1946 127.473 93.3893C129.083 92.4647 157.073 85.4851 166.92 83.5463C177.891 81.3689 186.491 80.2355 205.273 78.4458C219.344 77.1036 225.452 76.3877 232.168 75.2841C254.141 71.675 268.272 65.6499 278.089 55.7472C280.885 52.9136 282.283 50.8854 284.167 47.0078C289.09 36.8069 290.184 25.6515 287.023 17.6578C284.379 10.9466 278.393 5.93562 270.461 3.8477C267.33 3.01254 260.979 2.92306 257.636 3.66874C248.67 5.66717 241.134 11.3344 237.608 18.6421C233.506 27.2025 234.964 35.7331 241.711 42.7724C243.443 44.5322 243.899 45.1287 243.048 44.5023C241.346 43.1899 238.824 40.4458 237.547 38.507C234.083 33.2276 233.506 26.0392 235.967 19.686C239.31 11.2449 247.364 4.20563 256.481 1.78962C259.641 0.924628 265.932 0.715837 268.759 1.34221Z" fill="#EDD4C6"/>
<path d="M137.805 35.7033C146.254 37.0754 152.302 44.4725 153.669 55.0314C154.763 63.4129 150.752 72.4505 142.091 81.2198C135.617 87.752 130.086 91.6295 117.14 98.5793C110.302 102.248 103.464 106.126 103.464 106.334C103.464 106.394 105.683 105.38 108.387 104.097C125.528 95.9843 140.48 93.8069 154.885 97.3862C160.963 98.9074 166.829 101.622 172.42 105.499C173.15 106.006 173.15 106.006 172.815 105.38C172.39 104.604 172.299 104.634 175.338 103.71C179.137 102.546 181.963 102.218 186.491 102.397C192.417 102.636 196.672 104.008 201.656 107.289C204.908 109.436 206.427 110.868 213.296 118.235C224.631 130.375 227.184 132.403 232.776 133.925C234.113 134.283 235.329 134.7 235.481 134.849C236.514 135.804 228.066 136.49 220.59 136.042C211.138 135.476 203.935 134.104 199.255 131.986C196.49 130.703 192.448 127.78 188.679 124.29L185.914 121.695L186.643 123.485C188.71 128.526 189.439 135.535 188.436 140.516C187.373 145.736 185.032 149.882 180.808 154.088C170.627 164.229 156.435 167.242 142.79 162.201C131.18 157.876 124.464 148.212 125.528 137.235L125.771 134.67L125.984 138.697C126.135 142.127 126.318 143.141 127.169 145.647C129.965 153.849 136.347 159.636 145.251 161.962C148.716 162.887 154.976 163.096 158.562 162.44C166.221 161.008 173.423 157.13 179.076 151.403C190.685 139.622 189.5 124.738 175.946 111.405C169.776 105.32 162.695 101.473 153.912 99.4144C149.506 98.4003 141.088 98.1319 135.982 98.8477C120.908 100.995 105.804 108.213 84.6219 123.336C78.9388 127.422 72.8911 131.956 61.6769 140.636C39.6741 157.667 24.1749 167.719 6.36601 176.578C-1.44438 180.455 -16.6093 186.779 -17.0651 186.361C-17.1259 186.301 -15.5456 185.586 -13.6006 184.81C1.65548 178.606 20.0722 168.077 38.0634 155.311C44.0504 151.075 52.0127 145.11 54.3224 143.111L55.4773 142.127L54.5655 140.188C50.8275 132.284 50.6451 121.785 54.1705 114.984C55.143 113.075 56.2978 111.405 62.4367 103.053C68.3325 95.0596 70.0951 92.4945 71.7666 89.6012C73.3773 86.8273 73.5901 86.1115 74.1371 82.0848C74.3802 80.2355 74.7145 78.5055 74.8665 78.237C75.0792 77.8195 75.2008 77.8493 75.5958 78.4757C76.2037 79.4003 77.4497 83.6358 78.2398 87.4537C79.9417 95.8053 80.3976 105.022 79.3339 109.735C78.0271 115.7 75.0792 122.203 71.1588 127.9L68.8187 131.27L71.1892 129.301C89.849 113.523 95.3498 109.526 113.766 98.5196C130.785 88.3187 136.499 84.3815 142.03 78.9827C148.928 72.3014 151.998 66.3061 152.302 58.8791C152.636 51.6013 150.509 45.9937 145.889 41.8477C141.574 37.9702 135.526 36.2998 129.874 37.4035C126.196 38.1491 123.765 39.4019 121.243 41.9074C117.9 45.1586 116.532 48.6484 116.532 53.719C116.532 59.416 118.507 63.2936 122.732 65.978C124.768 67.2606 124.768 67.4992 122.701 66.3359C116.046 62.4882 113.554 52.8838 117.292 45.6358C120.756 38.9545 130.086 34.4207 137.805 35.7033Z" fill="#EDD4C6"/>
<path d="M354.339 44.741C357.56 45.3077 359.262 46.5306 360.113 48.887C360.721 50.6468 360.69 51.4819 359.961 51.989C359.353 52.4066 359.353 52.4364 360.234 52.5856C360.933 52.7347 361.146 52.9435 361.237 53.5997C361.298 54.1664 361.602 54.5542 362.149 54.8226C363.152 55.27 363.243 55.9262 362.392 56.3736C361.815 56.6719 361.815 56.7614 362.24 57.3579C362.909 58.2826 362.818 58.4615 361.663 58.4615C361.116 58.4615 360.265 58.6703 359.779 58.9089C359.019 59.2967 358.867 59.2967 358.35 58.8493C357.894 58.4317 357.317 58.3422 355.402 58.4317C354.096 58.4615 352.758 58.3721 352.394 58.1931C351.907 57.9246 351.725 57.9843 351.33 58.4914C350.965 59.0283 350.692 59.1177 349.78 58.9686C349.142 58.8791 348.321 58.5808 347.926 58.3422C346.376 57.3281 344.766 53.3014 344.766 50.4082C344.766 49.0958 345.434 45.7551 345.769 45.4568C346.376 44.8305 352.151 44.383 354.339 44.741Z" fill="#EDD4C6"/>
<path d="M126.227 134.104C126.227 134.432 126.135 134.521 126.044 134.283C125.953 134.074 125.984 133.805 126.075 133.716C126.166 133.597 126.257 133.775 126.227 134.104Z" fill="#EDD4C6"/>
</svg>
