<svg width="604" height="497" viewBox="0 0 604 497" fill="none" xmlns="http://www.w3.org/2000/svg">
<path d="M13.9188 0.498012C15.192 1.04469 16.5124 3.96028 16.5124 6.38995C16.5124 8.27294 16.1823 9.12332 14.9562 10.5204C14.1074 11.4922 13.1643 12.0997 12.7399 11.9174C11.3723 11.2493 12.0325 12.2211 14.2489 14.2256C16.5124 16.1693 24.2931 26.0702 24.2931 26.9206C24.2931 27.1636 24.7647 28.1354 25.3777 29.1073C26.6981 31.2333 29.9519 40.8912 29.9519 42.7742C29.9519 46.1757 30.4234 46.9046 32.4983 46.9046C33.5829 46.9046 34.7618 47.2691 35.0919 47.6335C35.6106 48.3017 35.7049 48.2409 35.422 47.3298C34.6204 44.3535 34.6204 43.2601 35.422 41.4986C36.6009 38.9475 38.0628 39.0082 39.336 41.6808C39.9019 42.7742 40.3263 44.4142 40.3263 45.3253V46.9654L41.4109 45.3253C42.3068 44.0498 42.967 43.6853 44.6175 43.6246C46.6452 43.5638 46.6923 43.6246 46.8338 45.629C46.9753 47.2691 46.6923 48.0587 45.4663 49.6987C43.9573 51.7032 43.9573 51.7639 44.9947 51.7639C45.6078 51.7639 46.6923 52.2499 47.4468 52.7965C49.0502 54.0114 49.3331 56.8662 47.9656 58.2025C47.0224 59.1744 44.5703 59.2959 44.5703 58.4455C44.5703 58.0811 44.1459 57.8381 43.6744 57.8381C42.8727 57.8381 42.7784 58.1418 43.0142 59.9033C43.5329 64.216 42.071 66.6456 39.8547 65.1271C38.6286 64.2767 37.4026 61.2396 37.827 59.9033C38.0156 59.2352 37.4497 59.5389 36.0822 60.8144C33.8187 62.8797 32.7341 63.1226 31.6495 61.7863C30.7064 60.5715 30.6121 60.9359 30.2348 66.3419C29.8104 71.9909 28.8673 77.9436 27.3583 84.2607C22.737 103.82 20.4735 115.603 21.3223 115.968C21.9825 116.272 21.5109 119.187 20.7564 119.187C20.2377 119.187 19.5775 120.402 19.5775 121.313C19.5775 121.435 20.1905 121.678 20.9922 121.921C22.3597 122.285 22.4069 122.346 21.5581 123.743C21.1337 124.532 20.332 125.261 19.8604 125.383C18.7759 125.626 18.2571 127.084 19.2474 127.084C20.0491 127.084 20.5206 128.359 20.5206 130.485C20.5206 131.7 20.2849 131.943 19.1059 131.943C18.1157 131.943 17.6913 132.247 17.6913 132.915C17.6913 133.461 17.9742 133.765 18.2571 133.644C18.5872 133.461 19.1531 133.765 19.5304 134.251C20.4263 135.344 19.719 136.924 18.1157 137.47C17.0311 137.774 16.7953 139.293 17.7384 139.718C17.9742 139.839 18.1628 140.325 18.1628 140.75C18.1628 141.236 18.7287 141.662 19.436 141.783C21.2751 142.026 21.4638 144.577 19.8133 146.096C18.823 147.007 18.6344 147.068 18.6344 146.217C18.6344 145.731 18.3043 145.306 17.927 145.306C17.5498 145.306 17.2197 144.881 17.2197 144.395C17.2197 143.909 16.9839 143.484 16.7481 143.484C16.4652 143.484 16.2766 144.213 16.2766 145.063C16.2766 145.913 16.4652 146.46 16.7481 146.217C17.0311 145.974 17.2197 146.703 17.2197 147.979C17.2197 149.497 17.0311 150.165 16.5124 150.165C16.1351 150.165 15.805 150.53 15.7579 150.894C15.7579 151.319 15.5692 153.749 15.4278 156.24L15.0977 160.795L16.6067 160.613C17.7384 160.431 18.2571 160.613 18.4458 161.403C19.1059 163.65 17.0311 165.351 15.4278 163.893C14.9562 163.468 14.8619 164.5 14.9562 169.056C15.0977 174.098 15.192 174.766 15.8993 174.583C16.5595 174.462 16.7481 174.826 16.7481 176.284C16.7481 177.378 16.4652 178.289 16.0408 178.471C15.2391 178.896 15.0505 181.144 15.805 181.144C16.0879 181.144 16.418 180.718 16.5595 180.232C16.9368 178.957 19.5304 179.018 19.9076 180.293C20.332 181.751 19.436 183.209 18.0685 183.452C17.3612 183.573 16.6538 184.241 16.3237 185.153C15.6635 187.157 15.6164 187.096 16.8424 187.339C18.3514 187.582 18.5401 189.89 17.1254 191.105C16.3237 191.834 16.1823 192.199 16.6538 192.806C16.9839 193.231 17.2197 193.292 17.2197 193.049C17.2197 192.745 17.5498 192.867 17.927 193.292C18.3043 193.717 18.6344 194.689 18.6344 195.539C18.6344 196.329 18.3043 197.119 17.927 197.301C16.8896 197.848 17.0782 199.184 18.1628 199.548C19.2003 199.913 19.436 201.735 18.5401 202.889C18.1628 203.375 18.1157 204.165 18.5401 205.865C18.823 207.141 19.2946 209.51 19.6247 211.15C20.0962 213.519 20.2849 213.883 20.5678 212.972C21.3223 210.482 21.6052 209.388 21.7467 208.66C21.9353 207.323 24.7175 202.585 26.2737 200.824C27.1697 199.791 28.5372 198.637 29.386 198.212C30.3291 197.726 30.895 196.936 30.895 196.268C30.895 195.418 31.2251 195.114 32.2154 195.114C32.9227 195.114 33.7244 195.357 34.0073 195.722C34.2903 196.086 35.0919 194.021 36.318 189.465C39.1002 179.018 41.1751 173.976 49.1445 158.608C50.6063 155.754 59.2831 145.002 62.4425 142.087C75.0804 130.546 88.3313 131.092 96.5837 143.605C100.686 149.862 104.695 162.253 105.968 172.701C107.335 183.998 106.345 191.47 102.808 196.268C100.781 199.002 100.733 199.062 97.291 199.245C91.3493 199.609 85.2662 195.904 81.7766 189.83C80.7392 188.068 79.6074 186.61 79.2773 186.61C78.9472 186.61 78.3813 186.185 78.0041 185.638C77.5325 184.849 77.5325 184.424 78.1456 183.087C78.8529 181.508 78.8529 181.387 77.7212 180.354C76.0235 178.653 76.4008 176.649 78.5228 176.284C79.8432 176.041 80.2204 175.677 80.3147 174.523C80.5505 172.701 81.8709 170.757 82.1538 171.85C82.2953 172.397 83.0498 172.154 84.6531 171.121C87.341 169.36 87.9541 169.238 87.9541 170.453C87.9541 170.939 87.0581 171.729 85.9263 172.154C83.9929 173.004 82.8612 175.069 84.3702 175.069C84.7946 175.069 85.1247 174.766 85.1247 174.462C85.1247 173.551 87.2939 173.733 87.9069 174.705C88.4728 175.616 87.8597 177.803 86.7752 178.835C86.4922 179.139 86.6337 179.321 87.1052 179.321C87.5768 179.321 88.2842 179.989 88.7086 180.84C89.7932 182.966 88.85 184.424 86.728 183.998C85.2662 183.695 85.219 183.755 85.5962 185.274C85.9735 187.157 85.2662 188.433 83.71 188.433C83.0027 188.433 82.6726 187.947 82.4368 186.61C82.2953 185.578 81.9652 184.788 81.7294 184.788C81.4465 184.788 81.3993 185.517 81.5408 186.428C82.0595 189.161 87.5768 194.932 91.3022 196.633C93.9429 197.848 99.0829 197.726 101.158 196.45C102.62 195.539 102.95 194.81 104.081 190.559C105.59 184.91 105.732 180.961 104.695 172.883C103.233 161.038 98.187 147.068 93.3299 141.236C91.1607 138.685 88.1427 136.802 84.4173 135.83C79.7017 134.555 77.1081 134.98 71.7323 137.713C66.4037 140.386 63.7629 142.39 60.8392 145.853C59.5188 147.432 57.9627 149.193 57.3025 149.862C54.3317 152.838 43.6272 170.878 43.6272 172.883C43.6272 173.065 43.9573 173.247 44.3345 173.247C44.8061 173.247 45.0419 173.855 45.0419 175.069C45.0419 176.77 44.9004 176.892 43.3914 176.892C41.9296 176.892 41.6466 177.135 40.6092 179.747C39.5718 182.419 35.6106 196.45 35.6106 197.483C35.6106 197.726 36.1765 197.908 36.8367 197.848C38.1571 197.848 38.3929 198.273 39.3831 201.796C40.5149 206.108 40.8921 208.842 40.6092 211.94C40.2319 216.374 36.4123 226.335 33.6772 230.101L32.5455 231.681L35.1391 230.344C38.5815 228.583 46.4094 226.032 47.7769 226.214C48.8144 226.396 49.003 225.91 50.0876 221.537C52.5869 211.271 58.7643 204.954 65.7906 205.44C69.0916 205.683 72.6754 206.898 73.1942 208.052C73.3828 208.477 74.3259 209.449 75.2219 210.117C76.1178 210.846 77.6268 212.486 78.57 213.762C80.5034 216.313 85.1247 225.242 85.1247 226.335C85.1247 226.7 85.5962 228.097 86.115 229.433C86.6808 230.769 87.9069 236.904 88.9443 243.404C90.7363 254.641 90.7834 255.248 90.7834 267.7C90.7363 276.872 90.5005 282.764 89.8403 288.656C89.3687 293.151 89.0387 296.917 89.133 297.039C89.2273 297.16 89.6517 296.249 90.0761 294.973C91.3022 291.086 100.215 272.317 103.563 266.486C109.646 255.856 117.474 246.562 125.821 240.124C128.65 237.876 135.818 235.204 138.836 235.204C141.146 235.204 142.467 235.507 146.758 236.722C147.748 237.026 148.314 237.633 151.756 241.703C154.303 244.74 155.105 247.656 155.293 255.005C155.482 261.383 155.435 261.93 153.973 266.546C152.087 272.62 150.578 275.961 148.031 279.97C145.815 283.311 145.532 283.979 146.664 283.432C147.088 283.19 147.371 283.432 147.371 284.04C147.371 284.587 147.701 285.012 148.078 285.012C148.738 285.012 148.691 285.194 147.984 286.53C147.088 288.11 145.532 288.474 144.07 287.441C143.315 286.955 142.702 287.381 140.439 290.053C135.77 295.52 128.933 301.776 126.009 303.295C125.302 303.659 124.736 304.206 124.736 304.449C124.736 304.753 124.312 305.178 123.793 305.36C123.227 305.603 122.85 306.271 122.85 307.122C122.85 309.794 120.067 311.617 119.171 309.551C118.794 308.701 117.993 309.065 113.371 312.042C110.4 313.986 107.335 315.868 106.486 316.233C105.26 316.78 106.581 316.901 113.324 316.901C117.898 316.901 123.321 317.144 125.302 317.387L128.98 317.873V315.808C128.98 313.317 130.725 310.948 132.375 311.252C134.073 311.556 134.167 315.018 132.47 317.023L131.196 318.541L133.743 318.116C135.629 317.812 136.666 317.934 137.704 318.663C138.458 319.209 139.543 319.634 140.015 319.634C140.533 319.634 142.75 320.363 144.919 321.214C147.135 322.064 150.2 322.975 151.804 323.157C154.303 323.522 154.68 323.765 154.822 324.919C154.916 325.709 155.152 326.316 155.387 326.316C155.623 326.316 156.095 326.438 156.472 326.62C156.991 326.923 157.085 326.316 156.896 323.583C156.708 320.363 156.708 320.242 157.887 320.242C160.15 320.242 160.575 320.789 160.575 323.643C160.575 326.073 160.48 326.316 159.113 326.741L157.651 327.227L162.084 331.115C166.846 335.306 167.459 336.095 169.582 340.408C170.383 342.048 171.185 343.324 171.373 343.324C172.034 343.324 172.882 347.454 173.165 351.828C173.495 357.78 172.222 362.397 169.251 366.163C167.554 368.289 167.177 369.139 167.177 370.961V373.209L164.913 372.966C161.754 372.54 158.075 373.634 158.405 374.849C158.547 375.395 159.443 378.432 160.386 381.591C161.518 385.357 162.319 389.184 162.65 392.646C163.121 397.87 163.168 397.991 164.347 397.991C165.998 397.991 167.177 400.482 166.233 402C165.809 402.608 165.102 402.85 164.253 402.729L162.932 402.425V407.345C162.932 410.079 162.744 413.237 162.461 414.331C162.225 415.485 162.178 416.153 162.414 415.849C162.885 415.181 168.544 403.944 169.959 400.907C170.572 399.631 171.279 398.416 171.562 398.173C171.892 397.87 172.741 396.776 173.448 395.622C175.57 392.342 180.805 387.179 184.389 384.932C188.35 382.381 192.405 381.652 196.13 382.806C200.846 384.264 204.902 390.398 204.902 396.047C204.902 398.963 204.854 398.902 206.976 397.748C209.287 396.473 212.871 396.047 215.276 396.716C218.058 397.444 220.935 398.902 221.359 399.631C221.501 399.996 222.349 400.725 223.198 401.271C224.094 401.879 225.132 403.154 225.556 404.126C226.028 405.098 226.546 405.888 226.829 405.888C227.348 405.948 229.423 409.836 229.423 410.808C229.423 411.658 229.753 411.537 232.771 409.471C234.28 408.378 235.553 407.224 235.553 406.799C235.553 406.191 235.317 406.131 234.374 406.677C233.714 407.102 233.195 407.649 233.195 407.892C233.195 408.135 232.771 408.074 232.252 407.71C231.12 406.92 230.979 404.369 232.064 403.579C232.724 403.093 232.629 402.85 231.356 401.879C228.998 400.056 229.611 397.991 232.535 397.991C233.431 397.991 233.667 397.687 233.667 396.533C233.667 395.744 233.95 394.772 234.327 394.407C234.893 393.8 234.893 393.314 234.327 390.884C232.865 384.689 233.855 380.194 237.345 377.035C239.231 375.395 239.75 375.213 244.23 375.031C248.663 374.788 249.276 374.909 251.398 376.306C256.019 379.283 256.066 384.324 251.539 392.95C249.936 396.108 248.993 397.262 246.352 399.51C245.409 400.299 243.994 402 243.145 403.336L241.683 405.766L244.183 409.35C245.55 411.294 247.248 413.845 248.002 414.999C248.757 416.153 250.124 417.854 251.067 418.704C252.624 420.223 252.859 420.283 254.038 419.494C255.925 418.218 261.583 416.821 264.743 416.821C267.997 416.821 271.015 418.34 274.457 421.68C277.711 424.839 280.399 431.521 280.729 437.412C280.87 440.146 280.776 441.725 280.399 441.968C280.116 442.211 279.88 442.879 279.88 443.426C279.88 444.762 287.189 449.804 295.111 453.873C298.459 455.574 302.232 457.639 303.505 458.429C304.731 459.279 306.57 459.948 307.561 459.948C310.201 459.948 311.286 460.494 311.852 462.074C312.229 463.045 313.031 463.653 314.87 464.2C316.237 464.625 320.623 466.265 324.631 467.905C328.592 469.545 334.958 471.853 338.778 473.007C342.551 474.222 347.549 475.862 349.907 476.652C353.727 477.988 356.603 478.535 357.924 478.17C358.159 478.109 357.735 477.866 356.98 477.623C355.849 477.32 355.519 476.895 355.424 475.497C355.236 473.797 355.283 473.736 357.216 474.1C358.678 474.343 359.055 474.222 358.678 473.736C357.924 472.764 358.065 471.185 359.008 470.031C359.857 469.12 359.951 469.12 360.611 470.091C360.989 470.699 361.46 471.671 361.649 472.339C361.932 473.432 361.979 473.432 362.828 472.4C364.903 470.031 366.647 472.886 364.714 475.497C363.677 476.895 363.677 476.955 364.62 476.955C365.751 476.955 367.355 479.02 366.883 479.932C366.742 480.296 366.742 480.6 366.978 480.6C367.166 480.6 370.09 481.025 373.485 481.572C380.889 482.726 398.289 482.908 403.665 481.875C405.74 481.45 409.23 480.478 411.446 479.689C413.662 478.899 416.02 478.109 416.68 477.927C417.765 477.623 421.113 475.072 425.215 471.428C425.923 470.76 426.677 470.274 426.913 470.274C427.385 470.274 430.356 466.325 431.44 464.2C432.289 462.499 432.43 461.162 431.723 461.162C431.44 461.162 429.884 460.069 428.186 458.672C424.697 455.878 422.339 451.99 421.113 447.313C420.358 444.337 420.358 443.912 421.066 441.604C422.339 437.595 424.178 435.044 426.913 433.404C430.073 431.581 432.666 431.885 434.6 434.436C436.061 436.319 437.382 441.361 437.382 445.127C437.382 448.589 435.543 458.794 434.694 460.069C433.892 461.223 433.798 461.162 439.032 463.896C447.237 468.148 471.334 473.311 489.914 474.829C500.477 475.68 501.75 475.68 502.74 474.829C504.202 473.614 507.173 473.675 508.588 474.951C509.578 475.862 511.511 476.044 523.348 476.226L536.976 476.53L536.268 475.072C534.948 472.4 534.854 470.031 535.938 468.269C537.447 465.779 539.239 466.083 541.786 469.18L543.861 471.792L544.049 468.694C544.285 464.928 545.605 462.985 547.869 462.985C549.472 462.985 551.83 465.475 551.264 466.629C551.123 466.933 551.217 467.297 551.453 467.48C551.689 467.662 552.019 467.358 552.207 466.751C552.49 465.961 552.726 466.386 553.103 468.451C553.622 470.942 553.811 471.185 555.272 471.367C556.168 471.489 557.206 471.853 557.489 472.217C557.96 472.703 558.102 472.582 558.102 471.792C558.102 471.246 557.677 470.638 557.206 470.456C556.263 470.152 555.555 468.694 555.933 467.905C556.074 467.662 556.97 467.601 557.96 467.723C559.422 467.966 559.564 468.087 558.809 468.512C557.913 468.937 557.913 468.998 558.903 468.998C559.799 469.059 559.988 469.423 560.035 471.003C560.035 473.007 560.035 473.007 560.554 471.489C560.837 470.638 561.12 469.848 561.167 469.666C561.214 469.484 561.403 468.937 561.544 468.451C561.686 467.966 561.921 466.69 561.969 465.718C562.063 464.2 561.921 463.835 561.025 463.714C560.224 463.531 559.988 463.835 559.988 464.746C559.988 465.597 559.705 466.022 559.045 466.022C557.772 466.022 557.772 463.835 559.045 463.41C559.564 463.228 559.988 462.681 559.988 462.134C559.988 460.98 561.874 460.798 561.874 461.891C561.874 462.317 562.299 463.349 562.817 464.2C563.855 465.9 564.043 467.844 563.195 468.937C562.77 469.484 562.77 469.666 563.147 469.666C563.478 469.666 563.808 469.423 563.949 469.12C564.279 468.451 566.59 467.844 566.59 468.451C566.59 468.694 566.213 469.12 565.741 469.302C563.996 470.152 562.582 471.489 562.252 472.703C561.874 473.979 561.969 473.979 563.855 473.614C564.987 473.372 565.977 472.946 566.024 472.643C566.118 472.339 566.59 472.096 567.061 472.096C568.099 472.096 568.712 471.124 568.005 470.577C567.769 470.395 567.533 469.666 567.533 468.998C567.533 467.176 569.608 467.662 569.797 469.545C569.891 470.274 569.749 470.881 569.514 470.881C569.278 470.881 568.948 471.428 568.806 472.096C568.476 473.857 569.278 473.614 571.211 471.428C572.154 470.334 573.852 468.937 575.031 468.33C576.257 467.662 577.624 466.872 578.19 466.568C578.709 466.204 580.171 466.022 581.491 466.143C583.566 466.325 583.802 466.508 583.943 467.844C584.038 469.12 583.708 469.666 582.246 470.76C581.208 471.489 579.746 472.096 578.945 472.096C578.143 472.096 577.389 472.339 577.247 472.643C577.106 472.886 575.785 473.311 574.324 473.554C571.117 474.04 569.891 474.769 569.891 476.348C569.891 478.049 571.306 478.778 575.408 479.142C579.322 479.567 589.461 478.656 592.384 477.623C593.375 477.32 595.167 476.652 596.44 476.226C597.666 475.801 598.656 475.133 598.656 474.708C598.656 474.283 599.458 473.797 600.401 473.554C601.91 473.189 602.287 473.372 603.183 474.708C603.89 475.801 604.126 476.773 603.938 477.684C603.325 480.843 600.307 481.632 598.703 479.02C597.996 477.866 597.477 477.563 596.911 477.866C593.988 479.446 580.548 481.45 576.257 480.964C574.701 480.782 573.003 480.6 572.484 480.6C570.787 480.478 568.476 478.17 568.476 476.591C568.476 475.437 568.24 475.133 567.297 475.133C566.637 475.133 565.977 475.558 565.788 476.105C565.6 476.834 565.128 476.955 563.666 476.652L561.827 476.226L562.157 479.324C562.346 481.389 562.252 483.029 561.827 484.366C561.167 486.492 559.799 488.496 559.045 488.496C558.338 488.496 556.687 486.188 556.687 485.155C556.687 484.001 558.29 484.001 559.045 485.155C559.375 485.641 559.799 486.067 560.035 486.067C560.601 486.067 560.554 478.717 559.988 477.563C559.611 476.834 559.516 476.895 559.516 477.988C559.516 478.778 559.281 479.385 559.045 479.385C558.762 479.385 558.573 479.932 558.573 480.6C558.573 481.936 556.923 482.301 556.546 481.025C556.357 480.478 556.168 480.478 555.838 481.146C555.508 481.693 554.942 481.815 554.046 481.572C552.773 481.146 552.773 481.207 554.707 483.88C557.111 487.281 557.442 490.258 555.508 491.898C554.093 493.052 552.49 492.687 550.038 490.622L548.293 489.164L548.01 491.23C547.633 493.841 545.37 497 543.861 497C542.021 497 540.654 494.449 540.654 490.987C540.654 489.286 540.843 487.767 541.126 487.585C541.361 487.403 541.597 486.978 541.597 486.613C541.597 486.067 541.267 486.188 538.909 487.767C536.787 489.225 534.241 488.192 533.109 485.459C532.166 483.151 534.571 479.263 537.4 478.595C538.013 478.474 532.119 478.292 524.244 478.231L510.002 478.17V480.296C510.002 481.875 509.578 482.908 508.258 484.73C507.267 486.006 506.088 487.889 505.664 488.982C505.192 490.075 504.579 490.926 504.249 490.865C503.919 490.804 503.259 490.926 502.787 491.169C502.363 491.473 501.656 491.533 501.278 491.29C500.901 491.108 500.477 490.926 500.335 490.926C500.194 490.926 499.581 490.318 498.921 489.59C497.93 488.496 497.742 487.707 497.742 485.095C497.742 482.301 497.93 481.754 499.156 480.418C501.892 477.441 501.467 477.259 490.055 476.409C477.182 475.497 451.293 470.76 446.624 468.451C445.917 468.148 443.418 467.176 441.107 466.325C438.796 465.475 436.25 464.321 435.448 463.714L433.939 462.62L429.79 468.148C426.3 472.825 424.933 474.1 421.584 476.226C419.368 477.623 417.388 478.778 417.199 478.778C416.963 478.778 415.548 479.446 413.992 480.235C406.164 484.366 389.141 485.459 372.683 483.029C368.204 482.361 364.29 481.693 363.96 481.511C363.629 481.389 363.346 481.936 363.252 482.908C363.158 483.88 362.781 484.609 362.309 484.73C361.413 484.973 360.046 483.576 360.046 482.483C360.046 481.511 359.527 481.632 358.537 482.847C357.405 484.123 355.99 483.212 356.132 481.329C356.226 480.296 355.896 479.992 354.481 479.689C353.538 479.446 351.746 478.899 350.52 478.413C349.294 477.866 345.899 476.834 342.975 476.044C335.619 473.979 326.989 470.881 319.821 467.601C313.738 464.807 312.135 464.321 312.654 465.414C313.031 466.204 311.569 471.367 310.579 472.886C309.871 473.918 309.918 473.979 311.239 473.493C313.832 472.582 317.652 473.129 318.878 474.647C319.491 475.376 319.963 476.409 319.963 476.955C319.963 477.502 320.199 478.231 320.481 478.595C321.283 479.628 319.444 483.151 317.322 484.669C316.285 485.398 314.587 486.006 313.408 486.006L311.38 486.067L312.606 488.192C314.068 490.622 315.011 495.724 314.115 496.15C313.785 496.332 311.522 496.332 309.07 496.271L304.637 496.089L303.835 493.963C303.222 492.444 302.986 492.141 302.986 493.052C302.939 495.907 301.996 496.393 296.903 496.393C292.989 496.393 292.046 496.21 291.81 495.421C291.669 494.935 291.763 494.206 292.046 493.841C292.329 493.477 292.423 492.809 292.282 492.384C292.141 491.898 292.235 491.533 292.518 491.533C292.754 491.533 293.084 491.047 293.272 490.44C293.414 489.893 293.65 489.104 293.791 488.739C293.98 488.314 293.131 488.192 291.197 488.375C289.358 488.557 288.132 488.375 287.661 487.889C285.916 486.067 286.529 488.192 288.745 491.958C290.113 494.206 291.009 496.271 290.82 496.514C290.632 496.757 268.515 496.939 241.683 496.879C193.018 496.696 189.717 496.575 193.914 494.753C194.952 494.267 194.008 494.084 189.576 493.781C186.463 493.538 182.974 493.173 181.842 492.991C179.862 492.566 179.814 492.627 180.333 493.902C180.663 494.631 180.758 495.481 180.616 495.785C180.427 496.15 174.863 496.393 166.045 496.393H151.709L151.143 490.379C150.813 486.978 150.625 479.992 150.719 474.586C150.908 464.321 150.719 463.592 149.021 468.573C148.503 470.031 147.512 472.157 146.805 473.372C146.098 474.586 145.485 475.801 145.485 476.044C145.485 476.53 142.42 481.511 140.628 483.819C139.92 484.791 139.354 485.763 139.354 486.006C139.354 486.552 133.366 492.87 130.913 494.813C129.074 496.332 128.744 496.393 121.388 496.393C112.853 496.393 112.192 496.089 110.023 491.655C109.127 489.772 108.939 488.618 108.939 484.244C108.986 479.871 109.174 478.474 110.353 475.133C112.381 469.302 116.578 462.56 120.35 459.097L121.907 457.7L117.757 457.336C115.352 457.093 112.098 456.242 109.787 455.271L105.921 453.63L98.2341 455.331C93.9901 456.242 90.1704 457.153 89.746 457.275C89.0387 457.518 89.133 458.247 90.642 463.471C91.5851 466.69 92.6225 471.246 92.9526 473.614C93.6128 478.049 93.8486 491.23 93.3299 494.51L92.9998 496.393H72.5811C56.7838 496.393 52.0682 496.21 51.7852 495.603C50.8421 493.659 49.5689 488.314 48.9558 483.637C48.6258 480.782 48.107 477.623 47.8713 476.652C47.6355 475.619 47.3054 471.549 47.1168 467.48L46.7867 460.13L44.4288 459.158C43.1085 458.611 41.9767 458.247 41.9767 458.308C41.9296 458.368 41.2222 459.765 40.3734 461.345C38.8644 464.2 38.8644 464.321 39.6661 465.475C40.9393 467.297 40.6564 470.395 39.1002 472.703C37.9213 474.404 37.4969 474.586 35.8464 474.404C34.809 474.222 33.6301 473.918 33.2528 473.736C32.7813 473.432 31.4137 474.769 28.9144 477.866C26.9339 480.357 24.5761 482.786 23.7273 483.333C21.9353 484.426 20.4263 485.52 19.5304 486.431C18.6344 487.342 15.0034 489.164 12.7399 489.832C11.7024 490.197 8.59011 490.501 5.76073 490.561L0.715015 490.683V462.013V433.343L3.11998 430.549C4.44036 429.03 5.76073 427.755 6.04367 427.755C6.27945 427.755 7.59983 426.661 8.9202 425.386C10.2406 424.11 12.0797 422.592 12.9756 422.106C13.8716 421.559 15.1448 420.769 15.805 420.223C16.9368 419.372 20.0019 417.55 24.1517 415.181L26.1794 414.088L17.0311 414.027C11.6553 414.027 7.08111 413.723 6.04367 413.298C5.05339 412.934 3.45008 412.448 2.4598 412.265L0.715015 411.901V382.806C0.715015 355.594 0.762171 353.711 1.51667 353.528C2.60126 353.225 5.52495 354.075 8.49579 355.533C9.81617 356.14 11.1365 356.687 11.5138 356.687C11.8439 356.687 14.2489 357.962 16.7953 359.481L21.4638 362.336L24.1517 359.056C25.6607 357.234 26.9339 355.594 27.0282 355.351C27.1225 355.168 26.3209 352.131 25.2834 348.669C23.6801 343.384 21.2751 330.689 21.5109 328.989C21.7467 327.045 21.2751 326.377 18.9645 325.466C14.4846 323.583 9.91048 321.274 9.10883 320.363C8.63726 319.877 7.26973 318.845 6.04367 318.055C4.81761 317.266 3.07283 315.868 2.22401 314.897L0.667858 313.074L0.856483 293.151C1.09226 269.097 0.997952 269.583 6.46808 259.014C7.17542 257.678 7.97708 256.402 8.26001 256.159C8.49579 255.977 8.73158 255.491 8.73158 255.188C8.73158 254.823 8.26001 255.005 7.69414 255.491C7.12826 256.038 6.32661 256.463 5.9022 256.463C5.52495 256.524 4.34605 257.01 3.30861 257.678C2.27117 258.285 1.28089 258.589 1.04511 258.346C0.856483 258.103 0.762171 252.879 0.809327 246.684L0.950796 235.507L3.78017 235.568L6.56239 235.69L5.38348 234.353C4.7233 233.685 3.40292 232.288 2.4598 231.255L0.715015 229.433V215.949V202.403H2.22401C3.9688 202.403 7.31689 203.8 8.9202 205.137C9.91048 205.987 10.1463 205.987 11.3723 205.137C12.1268 204.651 13.6358 204.225 14.7204 204.225C15.8522 204.225 16.7481 203.922 16.7481 203.618C16.7481 203.254 16.418 203.011 16.0408 203.011C15.2391 203.011 15.0977 201.128 15.805 200.216C16.1351 199.791 16.1351 199.062 15.8993 198.09C15.6635 197.301 15.2863 194.567 15.1448 192.016C14.9562 189.465 14.4846 186.61 14.1074 185.699C13.683 184.667 13.5415 183.209 13.7301 181.69C13.9659 179.747 13.9188 179.321 13.2586 179.321C12.7399 179.321 12.5041 178.775 12.5041 177.499C12.5041 176.466 12.6927 175.677 12.9756 175.677C13.2114 175.677 13.4472 175.252 13.4472 174.766C13.4472 174.219 13.0228 173.855 12.2683 173.855C10.9008 173.855 10.382 172.701 10.8065 170.514C11.1365 168.935 12.7399 168.388 13.1171 169.724C13.2114 170.149 13.4472 167.477 13.6358 163.832C13.8244 160.127 14.1074 156.665 14.2017 156.057C14.3903 155.207 14.1545 155.025 12.787 155.025C11.1365 155.025 11.0894 154.964 11.0894 152.838C11.0894 150.712 11.1365 150.651 12.7399 150.894C14.5318 151.137 14.9562 150.287 13.683 148.951C12.5984 147.796 12.787 145.306 13.9188 145.306C14.7204 145.306 14.8619 144.881 14.8619 142.876C14.8619 141.54 15.0505 139.961 15.2863 139.353C15.9465 137.713 18.3043 121.678 18.3514 118.337C18.3986 116.515 18.6344 115.239 18.9645 115.117C19.8604 114.692 19.719 113.903 18.6344 113.538C16.5124 112.809 16.9839 109.408 19.3417 108.861C20.5206 108.557 20.7564 108.011 22.2654 101.572C23.1614 97.7453 24.3874 91.9749 25.0005 88.8163C25.5664 85.6578 26.5095 81.1629 27.0754 78.794C28.3957 73.2057 29.4332 63.6086 29.4332 57.2307C29.4332 51.6425 28.8673 43.0779 28.3014 40.7697C27.5941 37.9756 24.6232 30.2007 23.2557 27.6495C20.4735 22.365 12.6455 14.1649 5.9022 9.42703C0.950796 5.90402 0.573546 5.53957 1.09226 4.87141C1.42236 4.44622 2.36548 4.81067 4.15742 6.08624L6.75101 7.96923L7.03395 5.72179C7.50551 2.381 8.82589 0.619495 11.2309 0.376529C12.3154 0.315787 13.5415 0.315787 13.9188 0.498012ZM30.895 55.5299L30.9422 58.1418L32.0739 56.441C32.6869 55.5299 33.4886 54.801 33.8187 54.801C34.3846 54.7403 32.0268 53.161 31.2251 53.0395C31.0365 52.9788 30.895 54.1329 30.895 55.5299ZM16.8424 215.766C16.0408 215.766 16.1351 216.374 17.2197 218.682C17.7384 219.775 18.1628 221.233 18.1628 222.023C18.1628 222.752 18.3514 223.723 18.5872 224.149C19.0588 225.121 19.6247 218.014 19.2474 215.584C19.0116 214.005 18.9173 213.944 18.1628 214.855C17.7384 215.341 17.1254 215.766 16.8424 215.766ZM36.7895 252.454C40.6564 255.734 45.3248 263.448 46.4566 268.308C46.7867 269.644 47.494 271.163 48.0127 271.709C48.6729 272.438 49.003 273.653 49.1916 276.022C49.3803 279.302 49.3331 279.424 47.6826 281.124C46.7395 282.096 45.985 283.129 45.985 283.493C45.985 284.222 48.39 286.409 50.7006 287.745C53.53 289.385 60.3677 295.459 64.4703 299.954C66.6394 302.262 68.6672 304.449 68.9973 304.692C69.3273 304.935 68.0541 302.445 66.215 299.165C64.3759 295.885 62.7255 292.787 62.584 292.301C62.4425 291.815 61.7823 290.357 61.1222 289.081C60.0847 286.955 55.9821 275.658 54.0959 269.523C53.7186 268.186 53.1056 266.668 52.7755 266.182C52.3983 265.635 51.8324 263.448 51.408 261.323C51.0307 259.136 50.3705 255.977 49.9461 254.216L49.1445 251.057H43.0613C39.7132 251.118 36.8367 250.936 36.6952 250.753C36.5066 250.571 35.9407 250.389 35.422 250.389C34.7147 250.389 35.0919 250.936 36.7895 252.454ZM22.1239 267.154C21.6995 269.766 21.3223 272.195 21.2751 272.438C21.2751 272.742 22.6898 273.471 24.5289 274.139C26.3209 274.746 27.8299 275.293 27.877 275.293C27.877 275.293 27.0282 273.046 25.9436 270.252C24.859 267.518 23.8216 264.481 23.6329 263.509C23.4443 262.598 23.2085 261.93 23.1142 262.051C22.9728 262.173 22.5484 264.481 22.1239 267.154ZM121.671 366.952C120.633 369.139 119.266 370.961 114.173 376.853L112.334 378.979L113.041 381.348C113.984 384.324 116.719 396.533 116.719 397.627C116.719 398.113 117.521 398.599 118.7 398.842C121.576 399.449 124.359 400.846 129.216 404.248C134.356 407.831 137.468 410.868 139.402 414.27C141.005 417.064 141.854 417.854 140.392 415.12C138.506 411.719 135.535 402.729 134.12 396.29C132.658 389.548 132.611 378.858 134.073 374.666C134.639 373.087 135.016 371.508 134.875 371.265C134.356 370.172 131.762 369.929 130.913 370.9C130.442 371.447 129.829 371.872 129.499 371.872C128.603 371.872 127.565 370.293 127.565 368.896C127.565 368.046 126.905 367.195 125.302 366.163C124.076 365.312 123.038 364.644 122.991 364.583C122.897 364.583 122.331 365.677 121.671 366.952ZM239.467 377.643C234.94 380.315 233.95 385.175 236.355 393.071C237.439 396.716 237.675 397.141 238.288 396.351C238.665 395.865 239.514 395.561 240.222 395.683C241.165 395.804 241.495 396.23 241.589 397.444C241.683 398.295 241.4 399.327 240.976 399.813C240.316 400.482 240.41 400.664 241.542 401.453C242.768 402.243 242.862 402.182 246.965 396.959C249.889 393.253 251.539 390.581 252.341 388.333C253.567 384.81 253.803 381.166 252.859 379.647C250.643 376.003 243.853 374.97 239.467 377.643ZM239.137 407.771C238.901 409.35 238.665 409.593 237.581 409.411C236.779 409.35 235.082 410.018 233.337 411.172L230.46 413.116L231.922 417.854C233.29 422.47 233.337 422.895 233.573 435.044C233.714 441.907 233.903 447.07 234.044 446.584C234.186 446.099 235.977 442.636 238.005 438.931C241.448 432.735 247.248 424.657 250.172 422.106L251.35 421.073L248.049 416.943C246.21 414.695 243.664 411.294 242.391 409.411C241.07 407.467 239.891 405.888 239.75 405.888C239.561 405.888 239.326 406.738 239.137 407.771ZM189.434 424.9C186.794 427.208 184.624 429.152 184.624 429.334C184.624 429.455 185.096 429.455 185.662 429.334C186.275 429.152 188.68 428.605 191.038 427.998L195.376 426.965L195.329 423.442C195.329 421.012 195.14 420.04 194.81 420.344C194.527 420.587 192.122 422.652 189.434 424.9ZM191.792 429.577C190.708 429.941 188.114 430.488 186.039 430.792C183.964 431.095 180.852 432.067 179.107 432.918C177.362 433.829 175.523 434.679 175.052 434.922C174.58 435.165 177.268 435.226 181.04 435.165C187.076 434.983 192.075 435.469 195.329 436.623C196.366 436.987 196.413 436.866 196.178 433.889C195.895 429.455 195.565 428.24 194.621 428.605C194.197 428.787 192.924 429.212 191.792 429.577ZM427.526 435.044C422.999 437.959 421.066 442.454 422.292 447.192C423.659 452.416 431.817 461.345 433.374 459.279C434.364 458.004 435.967 449.5 435.967 445.673C435.967 439.964 435.165 437.109 432.996 435.044C431.912 434.011 430.874 433.221 430.686 433.221C430.45 433.221 429.035 434.011 427.526 435.044ZM81.588 438.688C82.4839 440.389 83.2384 442.09 83.2384 442.454C83.2384 442.758 83.8515 444.155 84.5588 445.552C85.2662 446.949 86.4922 449.804 87.2467 451.869C88.0484 453.995 88.8029 455.696 88.9915 455.696C89.1801 455.696 92.3867 455.028 96.0649 454.177C99.7431 453.327 102.903 452.659 103.044 452.659C103.186 452.598 101.535 451.687 99.413 450.593C95.0747 448.285 89.5102 444.033 83.9458 438.81C81.8709 436.805 80.1261 435.287 80.0318 435.347C79.9847 435.408 80.6448 436.927 81.588 438.688ZM46.8338 447.617C46.2679 449.257 45.089 451.869 44.2402 453.57L42.6369 456.546L44.1931 457.275C47.2582 458.733 47.3054 458.672 47.5412 452.78C47.6355 449.865 47.8713 446.888 48.107 446.099C48.7672 443.608 47.8241 444.762 46.8338 447.617ZM278.937 448.528C278.937 450.229 274.976 457.579 272.146 461.162C270.307 463.471 269.411 465.111 269.223 466.568C268.845 469.059 264.979 474.283 262.715 475.315L261.253 475.983L262.432 476.409C263.092 476.652 264.413 476.834 265.356 476.895C266.299 476.955 267.572 477.198 268.185 477.502C268.798 477.806 270.543 478.413 272.099 478.838C275.117 479.628 281.483 483.394 283.983 485.884C285.633 487.403 286.01 487.099 284.831 485.095C283.841 483.394 283.983 481.086 285.209 478.717C286.387 476.409 287.519 475.862 291.15 475.801L293.744 475.74L292.282 473.736C289.594 470.091 289.075 465.536 291.056 462.863C293.697 459.279 298.224 461.162 300.912 466.994C301.383 468.026 301.525 467.844 302.279 465.718C302.751 464.382 303.552 462.742 304.024 462.013C304.873 460.798 304.826 460.737 295.819 456.06C290.82 453.509 285.114 450.168 283.181 448.771C279.644 446.099 278.984 446.099 278.937 448.528ZM576.021 469.666C574.465 470.699 573.192 471.61 573.192 471.731C573.192 472.217 577.247 471.367 579.181 470.517C580.265 470.031 581.397 469.18 581.68 468.694C582.764 467.054 579.039 467.723 576.021 469.666ZM550.651 472.764C550.745 473.068 551.217 472.946 551.736 472.46C552.537 471.671 552.584 471.428 551.971 470.942C551.217 470.274 550.321 471.549 550.651 472.764Z" fill="#EDD4C6"/>
<path d="M127.377 373.33C127.518 373.816 127.565 374.97 127.471 375.942C127.377 377.278 127.094 377.643 126.198 377.643C125.585 377.643 124.783 377.096 124.453 376.428C123.887 375.335 123.934 374.97 124.547 373.816C125.349 372.297 126.999 372.054 127.377 373.33Z" fill="#EDD4C6"/>
<path d="M123.557 378.979C124.453 381.53 123.84 382.806 121.812 382.806C120.492 382.806 120.445 382.684 120.586 380.498C120.728 378.554 120.916 378.25 121.954 378.068C122.803 377.946 123.321 378.25 123.557 378.979Z" fill="#EDD4C6"/>
<path d="M118.888 383.656C119.596 386.086 117.898 388.515 116.342 387.301C114.597 385.843 115.352 382.806 117.521 382.806C118.134 382.806 118.747 383.17 118.888 383.656Z" fill="#EDD4C6"/>
<path d="M11.4665 96.8342C12.7397 98.4743 11.608 101.268 9.81606 100.843C8.54284 100.539 8.63715 96.4698 9.91037 96.2268C10.4291 96.1661 11.1364 96.409 11.4665 96.8342Z" fill="#EDD4C6"/>
<path d="M7.12822 98.8387C7.69409 100.661 6.89243 102.787 5.66637 102.787C4.29884 102.787 3.54434 100.296 4.48747 98.8387C5.24197 97.6846 6.79812 97.6846 7.12822 98.8387Z" fill="#EDD4C6"/>
<path d="M16.1824 100.479C16.0409 102.24 15.8523 102.483 14.4848 102.665C13.0229 102.848 12.9758 102.787 12.9758 100.722C12.9758 98.5958 13.0229 98.535 14.6734 98.535C16.2767 98.535 16.3238 98.5958 16.1824 100.479Z" fill="#EDD4C6"/>
<path d="M4.01587 104.548C4.01587 106.31 3.8744 106.431 2.31824 106.431C0.762089 106.431 0.667776 106.31 0.809245 104.731C0.903557 103.394 1.18649 103.03 2.45971 102.908C3.92156 102.726 4.01587 102.848 4.01587 104.548Z" fill="#EDD4C6"/>
<path d="M19.106 105.217C19.106 106.857 18.9645 107.039 17.6913 107.039C16.4181 107.039 16.2766 106.857 16.2766 105.217C16.2766 103.577 16.4181 103.394 17.6913 103.394C18.9645 103.394 19.106 103.577 19.106 105.217Z" fill="#EDD4C6"/>
<path d="M2.12964 110.076C2.12964 110.744 1.79954 111.291 1.4223 111.291C1.04505 111.291 0.714951 110.744 0.714951 110.076C0.714951 109.408 1.04505 108.861 1.4223 108.861C1.79954 108.861 2.12964 109.408 2.12964 110.076Z" fill="#EDD4C6"/>
<path d="M45.1833 125.079C45.372 125.261 45.5134 126.233 45.5134 127.205C45.5134 128.663 45.3248 128.906 44.0987 128.906C42.7784 128.906 42.6841 128.724 42.6841 126.78C42.6841 124.958 42.8255 124.654 43.7686 124.654C44.3817 124.654 45.0419 124.836 45.1833 125.079Z" fill="#EDD4C6"/>
<path d="M40.7979 127.326C40.7979 129.452 40.7507 129.513 39.1002 129.513C37.4969 129.513 37.4498 129.452 37.5912 127.509C37.7327 125.808 37.9213 125.565 39.2417 125.383C40.7507 125.201 40.7979 125.261 40.7979 127.326Z" fill="#EDD4C6"/>
<path d="M50.229 128.238C50.229 129.999 50.0875 130.121 48.5314 130.121C46.9752 130.121 46.8809 129.999 47.0224 128.42C47.1167 127.084 47.3996 126.719 48.6728 126.598C50.1347 126.415 50.229 126.537 50.229 128.238Z" fill="#EDD4C6"/>
<path d="M36.0821 127.995C36.7895 129.088 36.5537 130.728 35.5162 131.518C34.4316 132.429 33.2527 131.032 33.2527 128.845C33.2527 127.387 33.4414 127.084 34.3845 127.084C34.9975 127.084 35.752 127.509 36.0821 127.995Z" fill="#EDD4C6"/>
<path d="M53.3886 130.85C53.6243 131.275 53.7187 132.307 53.53 133.158C53.3414 134.251 52.917 134.676 52.1153 134.676C51.0779 134.676 50.9364 134.373 50.795 132.368C50.6535 130.364 50.7478 130.121 51.7852 130.121C52.4454 130.121 53.1528 130.485 53.3886 130.85Z" fill="#EDD4C6"/>
<path d="M32.3096 132.247C32.3096 134.251 32.2153 134.373 30.6591 134.373C29.1029 134.373 29.0086 134.251 29.0086 132.247C29.0086 130.242 29.1029 130.121 30.6591 130.121C32.2153 130.121 32.3096 130.242 32.3096 132.247Z" fill="#EDD4C6"/>
<path d="M27.6413 133.401C27.6413 133.461 27.7827 134.373 27.877 135.405C28.1128 137.349 28.0657 137.41 26.4624 137.41C25.0005 137.41 24.7647 137.227 24.7647 135.952C24.7647 134.373 25.3778 133.583 26.7453 133.461C27.2169 133.401 27.5941 133.401 27.6413 133.401Z" fill="#EDD4C6"/>
<path d="M1.84668 133.583C2.41255 134.312 2.12961 135.587 1.42227 135.587C1.04502 135.587 0.714925 135.223 0.714925 134.737C0.714925 133.704 1.37511 133.036 1.84668 133.583Z" fill="#EDD4C6"/>
<path d="M54.4731 138.624C54.4731 140.325 54.3317 140.447 52.8227 140.447C51.3137 140.447 51.1722 140.325 51.1722 138.624C51.1722 136.924 51.3137 136.802 52.8227 136.802C54.3317 136.802 54.4731 136.924 54.4731 138.624Z" fill="#EDD4C6"/>
<path d="M24.1989 139.353C24.0574 141.115 23.916 141.358 22.6427 141.358C21.6525 141.358 21.1809 141.054 21.0866 140.264C20.8508 138.746 21.8411 137.41 23.2086 137.41C24.1989 137.41 24.3404 137.653 24.1989 139.353Z" fill="#EDD4C6"/>
<path d="M2.88405 139.536C3.2613 141.601 2.8369 142.876 1.65799 142.876C0.856336 142.876 0.714867 142.512 0.714867 140.447C0.714867 138.442 0.856336 138.017 1.65799 138.017C2.27102 138.017 2.69543 138.564 2.88405 139.536Z" fill="#EDD4C6"/>
<path d="M52.5869 144.091C52.5869 145.792 52.4454 145.913 50.9364 145.913C49.4274 145.913 49.286 145.792 49.286 144.091C49.286 142.39 49.4274 142.269 50.9364 142.269C52.4454 142.269 52.5869 142.39 52.5869 144.091Z" fill="#EDD4C6"/>
<path d="M4.48755 146.278C4.48755 148.161 3.3558 149.497 1.75249 149.558C0.762206 149.558 0.667893 149.315 0.809362 147.25C0.950831 145.124 1.04514 145.002 2.69561 144.82C4.34608 144.638 4.48755 144.759 4.48755 146.278Z" fill="#EDD4C6"/>
<path d="M49.2859 148.951C49.2859 150.591 49.1444 150.773 47.8712 150.773C46.598 150.773 46.4565 150.591 46.4565 148.951C46.4565 147.31 46.598 147.128 47.8712 147.128C49.1444 147.128 49.2859 147.31 49.2859 148.951Z" fill="#EDD4C6"/>
<path d="M45.1834 150.53C45.7965 151.319 45.5135 154.478 44.8062 154.782C43.7216 155.328 42.637 153.81 42.7785 152.048C42.9199 150.469 44.4289 149.558 45.1834 150.53Z" fill="#EDD4C6"/>
<path d="M5.99647 151.562C6.70381 152.899 6.70381 153.02 5.855 153.688C5.38344 154.114 4.44031 154.417 3.78012 154.417C2.64837 154.417 2.55406 154.235 2.69553 152.413C2.78984 150.833 3.07278 150.469 4.0159 150.348C4.81756 150.226 5.47775 150.651 5.99647 151.562Z" fill="#EDD4C6"/>
<path d="M41.2693 154.964C41.2693 158.001 40.892 158.608 39.5717 157.819C38.6757 157.272 38.4399 156.786 38.5342 155.328C38.6285 153.871 38.9115 153.445 39.9489 153.324C41.1278 153.142 41.2693 153.324 41.2693 154.964Z" fill="#EDD4C6"/>
<path d="M11.7024 156.725C12.787 158.183 12.9756 158.973 12.9756 161.767C12.9756 164.683 12.787 165.351 11.6081 166.809C10.3348 168.388 9.95759 168.509 7.55262 168.266C4.0159 167.902 2.97846 166.566 2.69553 162.01C2.5069 158.912 2.60121 158.426 3.82728 156.786C4.95903 155.268 5.47774 155.025 7.7884 155.025C10.0991 155.025 10.6178 155.268 11.7024 156.725Z" fill="#EDD4C6"/>
<path d="M37.0254 157.758C37.0254 159.702 36.9311 159.884 35.6107 159.884C34.2903 159.884 34.196 159.702 34.196 157.758C34.196 155.814 34.2903 155.632 35.6107 155.632C36.9311 155.632 37.0254 155.814 37.0254 157.758Z" fill="#EDD4C6"/>
<path d="M32.4513 157.819C33.1115 158.669 32.7814 160.795 31.8382 161.585C30.4707 162.678 28.9146 161.342 29.1032 159.277C29.1975 158.062 29.5276 157.697 30.6593 157.576C31.461 157.454 32.2627 157.576 32.4513 157.819Z" fill="#EDD4C6"/>
<path d="M27.8299 159.398C28.0657 160.309 27.9242 161.767 27.4526 162.678C27.3112 163.043 27.3112 163.528 27.4526 163.771C27.6413 163.954 27.7827 164.683 27.8299 165.351C27.877 166.323 27.5941 166.566 26.3209 166.566H24.7647V162.617V158.669H26.1794C26.9811 158.669 27.7356 159.034 27.8299 159.398Z" fill="#EDD4C6"/>
<path d="M22.7841 162.739C22.6426 165.229 22.5011 165.655 21.6052 165.837C20.8035 166.019 20.3791 165.594 20.0019 164.318C19.3417 161.949 20.0962 159.884 21.6995 159.884C22.8784 159.884 22.9256 160.006 22.7841 162.739Z" fill="#EDD4C6"/>
<path d="M31.6965 165.047C32.0266 165.533 32.3096 166.626 32.3096 167.477C32.3096 168.935 32.1681 169.056 30.7534 168.874C29.5745 168.752 29.1973 168.388 29.1029 167.295C28.82 164.743 30.5176 163.286 31.6965 165.047Z" fill="#EDD4C6"/>
<path d="M36.8366 168.023C37.2139 170.149 36.7423 170.818 34.8561 170.818C33.4886 170.818 33.2528 170.635 33.2528 169.42C33.2528 166.444 36.2708 165.29 36.8366 168.023Z" fill="#EDD4C6"/>
<path d="M5.28898 169.724C6.18495 171.364 5.3833 173.247 3.77998 173.247C2.41245 173.247 1.94089 172.397 2.31814 170.453C2.64823 168.874 4.48733 168.388 5.28898 169.724Z" fill="#EDD4C6"/>
<path d="M41.0809 171.121C41.5525 172.579 40.8923 173.855 39.7134 173.855C38.393 173.855 37.4971 172.822 37.4971 171.303C37.4971 170.453 37.8743 170.21 39.1475 170.21C40.185 170.21 40.9395 170.575 41.0809 171.121Z" fill="#EDD4C6"/>
<path d="M3.07275 176.588C3.07275 178.471 2.93129 178.714 1.89385 178.714C0.856411 178.714 0.714942 178.471 0.714942 176.588C0.714942 174.705 0.856411 174.462 1.89385 174.462C2.93129 174.462 3.07275 174.705 3.07275 176.588Z" fill="#EDD4C6"/>
<path d="M48.2486 177.621C48.5315 177.985 48.8145 178.957 48.8145 179.746C48.8145 180.961 48.5787 181.144 47.1168 181.144C45.5135 181.144 45.4664 181.083 45.6078 179.139C45.7493 177.013 47.164 176.223 48.2486 177.621Z" fill="#EDD4C6"/>
<path d="M50.8892 182.662C51.0307 183.209 51.1721 184.363 51.1721 185.153C51.1721 186.489 50.9835 186.671 49.8517 186.489C48.72 186.307 48.5785 186.064 48.5785 184.181C48.5785 182.48 48.7672 181.994 49.5688 181.872C50.1818 181.751 50.7006 182.115 50.8892 182.662Z" fill="#EDD4C6"/>
<path d="M1.89395 182.358C1.75248 182.662 1.42239 182.966 1.13945 182.966C0.903667 182.966 0.715042 182.662 0.715042 182.358C0.715042 181.994 1.04514 181.751 1.46954 181.751C1.84679 181.751 2.03542 181.994 1.89395 182.358Z" fill="#EDD4C6"/>
<path d="M22.8784 185.335C22.8784 187.461 22.3125 188.433 21.1808 188.433C20.1905 188.433 20.049 188.129 20.049 186.307C20.049 184.363 20.1434 184.181 21.4637 184.181C22.5483 184.181 22.8784 184.484 22.8784 185.335Z" fill="#EDD4C6"/>
<path d="M52.8697 189.344C53.2941 190.741 52.7282 192.077 51.6908 192.077C50.1818 192.077 49.2858 191.409 49.2858 190.255C49.2858 188.433 52.3982 187.643 52.8697 189.344Z" fill="#EDD4C6"/>
<path d="M26.4624 189.283C27.0282 191.105 26.2737 192.138 24.6704 191.956C23.35 191.834 23.1143 191.53 23.1143 190.255C23.1143 188.979 23.35 188.676 24.6704 188.554C25.7079 188.433 26.2737 188.676 26.4624 189.283Z" fill="#EDD4C6"/>
<path d="M30.4233 193.474C30.4233 195.236 29.5745 196.329 28.2542 196.329C27.1224 196.329 26.5094 194.932 26.8866 193.231C27.1224 192.381 27.6411 192.077 28.82 192.077C30.1876 192.077 30.4233 192.259 30.4233 193.474Z" fill="#EDD4C6"/>
<path d="M51.5496 194.628C52.3041 195.6 52.2569 197.544 51.4552 197.544C51.1251 197.544 50.5593 197.969 50.182 198.516C49.6161 199.366 49.5218 199.366 49.1917 198.212C49.0031 197.483 48.5316 196.936 48.1071 196.936C47.447 196.936 47.447 196.754 48.2015 195.418C49.0974 193.839 50.6536 193.474 51.5496 194.628Z" fill="#EDD4C6"/>
<path d="M47.7769 198.273C48.107 198.698 48.3428 199.609 48.3428 200.399C48.3428 201.614 48.107 201.796 46.6923 201.796C45.1361 201.796 45.0418 201.674 45.0418 199.67C45.0418 197.848 45.1833 197.544 46.1264 197.544C46.7395 197.544 47.4468 197.848 47.7769 198.273Z" fill="#EDD4C6"/>
<path d="M43.1555 200.52C43.1555 202.221 43.014 202.403 41.6937 202.403C40.4205 202.403 40.279 202.221 40.4205 200.702C40.5148 199.427 40.8449 199.002 41.8351 198.88C43.014 198.698 43.1555 198.88 43.1555 200.52Z" fill="#EDD4C6"/>
<path d="M181.701 269.644C181.559 271.77 181.418 271.952 180.144 271.952C178.871 271.952 178.73 271.77 178.588 269.644C178.447 267.397 178.447 267.397 180.144 267.397C181.842 267.397 181.842 267.397 181.701 269.644Z" fill="#EDD4C6"/>
<path d="M175.382 268.369C175.948 270.191 175.665 271.77 174.627 272.863C173.495 274.017 173.495 274.017 172.128 270.616C171.751 269.766 173.495 267.397 174.439 267.397C174.816 267.397 175.24 267.822 175.382 268.369Z" fill="#EDD4C6"/>
<path d="M186.888 272.985C186.746 274.807 186.605 274.989 185.096 274.989C183.587 274.989 183.445 274.868 183.445 273.167C183.445 271.466 183.587 271.345 185.237 271.163C187.029 270.98 187.029 270.98 186.888 272.985Z" fill="#EDD4C6"/>
<path d="M170.76 271.892C171.373 273.896 170.76 274.989 168.921 275.172C167.129 275.354 167.129 275.354 167.271 273.349C167.412 271.588 167.601 271.345 168.968 271.163C170.006 271.041 170.572 271.284 170.76 271.892Z" fill="#EDD4C6"/>
<path d="M165.573 276.812C165.998 278.998 165.479 280.152 164.111 280.152C162.744 280.152 162.225 278.998 162.65 276.812C162.885 275.718 163.263 275.293 164.111 275.293C164.96 275.293 165.337 275.718 165.573 276.812Z" fill="#EDD4C6"/>
<path d="M189.623 277.966C189.764 278.452 189.812 279.484 189.717 280.274C189.623 281.428 189.293 281.671 187.973 281.671C186.416 281.671 186.322 281.549 186.322 279.545C186.322 277.601 186.464 277.419 187.831 277.237C188.821 277.115 189.434 277.358 189.623 277.966Z" fill="#EDD4C6"/>
<path d="M161.518 283.189C161.518 285.255 160.716 285.923 158.924 285.376C158.075 285.072 157.745 284.587 157.745 283.554C157.745 282.035 158.547 281.367 160.386 281.367C161.329 281.367 161.518 281.671 161.518 283.189Z" fill="#EDD4C6"/>
<path d="M188.255 284.708C189.057 285.133 189.34 285.801 189.34 287.259C189.34 289.567 188.821 290.114 186.982 289.567C185.756 289.203 185.567 288.899 185.567 287.077C185.567 285.68 185.803 285.012 186.228 285.012C186.605 285.012 186.982 284.829 187.076 284.526C187.124 284.283 187.689 284.344 188.255 284.708Z" fill="#EDD4C6"/>
<path d="M157.415 287.198C157.604 287.441 157.745 288.535 157.745 289.689C157.745 291.45 157.604 291.693 156.519 291.693C154.916 291.693 154.114 290.539 154.444 288.656C154.727 287.138 156.661 286.227 157.415 287.198Z" fill="#EDD4C6"/>
<path d="M186.982 292.604C188.067 294.305 187.359 295.642 185.332 295.642C183.917 295.642 183.398 295.399 183.304 294.548C183.068 293.03 184.058 291.693 185.332 291.693C185.897 291.693 186.652 292.119 186.982 292.604Z" fill="#EDD4C6"/>
<path d="M148.125 293.516C148.173 294.973 147.937 295.459 147.088 295.702C145.296 296.31 144.447 295.581 144.636 293.698C144.777 292.24 145.013 291.997 146.428 291.815C147.984 291.633 148.078 291.754 148.125 293.516Z" fill="#EDD4C6"/>
<path d="M154.35 293.637C154.68 294.062 154.916 295.156 154.916 296.067C154.916 297.646 154.775 297.767 153.03 297.767C151.332 297.767 151.144 297.585 151.144 296.31C151.144 295.52 151.285 294.427 151.426 293.88C151.757 292.726 153.548 292.604 154.35 293.637Z" fill="#EDD4C6"/>
<path d="M183.351 298.193C183.54 298.375 183.681 299.468 183.681 300.622C183.681 302.445 183.54 302.627 182.266 302.627C181.418 302.627 180.71 302.202 180.427 301.533C180.192 300.987 179.909 300.319 179.814 300.136C179.248 298.8 182.455 296.978 183.351 298.193Z" fill="#EDD4C6"/>
<path d="M147.229 298.8C147.56 298.922 147.843 300.015 147.843 301.169C147.843 303.052 147.748 303.234 146.428 303.234C144.825 303.234 144.306 302.202 144.73 299.893C145.013 298.436 145.862 298.071 147.229 298.8Z" fill="#EDD4C6"/>
<path d="M152.039 301.048C152.464 301.655 152.464 302.262 152.039 303.477C151.049 306.211 148.786 305.117 148.786 301.898C148.786 300.44 148.974 300.197 150.153 300.197C150.908 300.197 151.756 300.562 152.039 301.048Z" fill="#EDD4C6"/>
<path d="M179.437 304.145C179.437 304.631 179.626 305.056 179.862 305.056C180.333 305.056 180.286 306.211 179.767 307.304C179.107 308.64 176.938 308.154 175.995 306.575C175.287 305.239 175.24 305.056 175.901 305.056C176.278 305.056 176.608 304.631 176.608 304.145C176.608 303.538 177.079 303.234 178.023 303.234C178.966 303.234 179.437 303.538 179.437 304.145Z" fill="#EDD4C6"/>
<path d="M129.782 305.482C130.536 305.846 130.583 308.822 129.829 309.794C129.499 310.22 128.886 310.523 128.461 310.523C127.942 310.523 127.565 311.07 127.471 311.86C127.377 313.014 126.999 313.317 125.538 313.439C123.887 313.621 123.793 313.56 123.793 311.92C123.793 309.916 124.547 308.701 125.773 308.701C126.292 308.701 126.622 308.276 126.622 307.608C126.622 305.603 128.084 304.571 129.782 305.482Z" fill="#EDD4C6"/>
<path d="M149.257 307.851C149.965 309.491 149.634 310.827 148.173 311.981C147.56 312.467 147.229 312.467 146.994 311.981C146.805 311.556 146.239 311.191 145.72 311.07C145.013 310.888 144.73 310.28 144.636 308.519L144.494 306.271H146.569C148.314 306.271 148.738 306.514 149.257 307.851Z" fill="#EDD4C6"/>
<path d="M174.863 308.458C175.052 308.701 175.193 309.794 175.193 310.948C175.193 312.771 175.052 312.953 173.826 312.953C172.222 312.953 171.279 311.738 171.515 309.794C171.609 308.762 171.986 308.337 173.071 308.215C173.873 308.094 174.674 308.215 174.863 308.458Z" fill="#EDD4C6"/>
<path d="M170.383 315.2C170.242 317.326 170.1 317.509 168.733 317.691C167.412 317.873 167.177 317.63 166.894 316.354C166.422 313.864 166.941 312.953 168.827 312.953C170.525 312.953 170.525 313.014 170.383 315.2Z" fill="#EDD4C6"/>
<path d="M147.182 314.411C147.324 314.897 147.371 315.929 147.277 316.719C147.182 317.873 146.805 318.177 145.343 318.298C143.693 318.48 143.598 318.42 143.598 316.78C143.598 315.808 143.834 314.714 144.164 314.289C144.966 313.257 146.852 313.378 147.182 314.411Z" fill="#EDD4C6"/>
<path d="M165.196 318.966C165.102 320.728 165.243 321.517 165.856 322.003C167.176 323.036 166.941 325.587 165.526 326.073C163.498 326.741 162.791 325.952 163.074 323.583C163.31 321.882 163.168 321.457 162.414 321.153C161.423 320.728 161.188 318.48 162.084 317.326C162.414 316.901 163.262 316.597 164.017 316.597C165.337 316.597 165.384 316.719 165.196 318.966Z" fill="#EDD4C6"/>
<path d="M177.928 322.186C178.211 322.55 178.494 323.704 178.494 324.615C178.494 326.195 178.353 326.316 176.561 326.316H174.674L174.816 324.008C174.957 322.125 175.146 321.76 176.136 321.578C176.797 321.457 177.598 321.76 177.928 322.186Z" fill="#EDD4C6"/>
<path d="M172.364 322.368C173.071 323.461 172.647 324.858 171.279 325.952C170.1 326.923 168.827 325.648 168.827 323.522C168.827 322.003 169.016 321.76 170.289 321.578C171.185 321.457 171.986 321.76 172.364 322.368Z" fill="#EDD4C6"/>
<path d="M183.304 323.157C184.058 323.704 184.624 324.494 184.624 324.919C184.624 325.83 182.927 328.138 182.266 328.138C181.701 328.138 179.909 325.891 179.909 325.223C179.909 324.919 180.38 324.129 180.946 323.4C181.984 322.186 182.078 322.186 183.304 323.157Z" fill="#EDD4C6"/>
<path d="M189.623 325.952C190.095 328.381 189.576 329.353 187.831 329.353C186.322 329.353 186.275 329.232 186.322 327.106C186.369 324.98 186.511 324.798 187.831 324.615C189.057 324.433 189.34 324.676 189.623 325.952Z" fill="#EDD4C6"/>
<path d="M194.999 329.839C194.999 332.998 192.594 334.212 191.604 331.54C190.849 329.292 191.415 328.138 193.348 328.138C194.857 328.138 194.999 328.321 194.999 329.839Z" fill="#EDD4C6"/>
<path d="M199.384 332.208C199.573 332.39 199.714 333.484 199.714 334.638C199.714 336.581 199.667 336.642 197.828 336.642C196.083 336.642 195.942 336.521 195.942 334.941C195.942 334.03 196.178 332.937 196.508 332.512C197.121 331.722 198.866 331.54 199.384 332.208Z" fill="#EDD4C6"/>
<path d="M203.298 339.983C203.675 341.987 202.921 343.081 201.27 343.02C200.091 342.899 199.95 342.656 199.809 340.712C199.667 338.525 199.714 338.464 201.318 338.464C202.732 338.464 203.062 338.707 203.298 339.983Z" fill="#EDD4C6"/>
<path d="M202.921 345.875C204.1 347.393 203.298 351.281 201.836 351.22C201.601 351.22 200.987 350.491 200.516 349.702C199.714 348.244 199.714 348.122 200.516 346.664C201.459 345.024 202.072 344.782 202.921 345.875Z" fill="#EDD4C6"/>
<path d="M200.044 352.253C201.129 352.799 200.752 355.836 199.478 356.93C198.394 357.841 198.205 357.841 197.592 357.051C196.649 355.836 196.696 352.678 197.639 352.192C198.488 351.767 199.196 351.767 200.044 352.253Z" fill="#EDD4C6"/>
<path d="M178.022 355.776C178.824 357.719 178.022 359.117 176.089 359.117C174.816 359.117 174.721 358.934 174.721 356.687C174.721 354.439 174.816 354.257 176.042 354.257C176.985 354.257 177.598 354.682 178.022 355.776Z" fill="#EDD4C6"/>
<path d="M195.282 356.93C195.706 359.117 195.235 360.331 193.961 360.331C192.264 360.331 191.604 359.481 191.792 357.537C191.887 356.079 192.169 355.776 193.443 355.594C194.763 355.411 194.999 355.654 195.282 356.93Z" fill="#EDD4C6"/>
<path d="M183.493 356.991C183.964 359.42 183.445 360.331 181.559 360.331C179.956 360.331 179.862 360.21 180.003 358.631C180.286 355.351 182.927 354.075 183.493 356.991Z" fill="#EDD4C6"/>
<path d="M189.34 359.056C189.34 361.364 189.246 361.546 187.972 361.546C186.369 361.546 185.426 360.331 185.662 358.388C185.756 357.234 186.133 356.93 187.548 356.808L189.34 356.626V359.056Z" fill="#EDD4C6"/>
<path d="M168.497 376.853C169.298 377.886 169.204 379.222 168.214 380.133C166.422 381.895 164.488 380.437 165.007 377.643C165.243 376.489 165.62 376.124 166.61 376.124C167.318 376.124 168.167 376.428 168.497 376.853Z" fill="#EDD4C6"/>
<path d="M169.298 385.235C169.723 387.665 169.298 388.273 167.365 388.273C165.809 388.273 165.762 388.212 165.762 385.843C165.762 383.474 165.809 383.413 167.365 383.413C168.78 383.413 169.015 383.656 169.298 385.235Z" fill="#EDD4C6"/>
<path d="M168.261 391.796C169.299 393.253 169.252 393.921 168.167 395.197C166.941 396.655 165.668 396.23 165.102 394.225C164.3 391.249 166.611 389.487 168.261 391.796Z" fill="#EDD4C6"/>
<path d="M555.744 466.933C555.744 467.419 555.319 467.844 554.801 467.844C554.282 467.844 553.858 467.419 553.858 466.933C553.858 466.447 554.282 466.022 554.801 466.022C555.319 466.022 555.744 466.447 555.744 466.933Z" fill="#EDD4C6"/>
<path d="M567.58 477.927C568.146 478.777 568.099 478.899 567.344 478.717C566.826 478.595 566.354 478.109 566.213 477.684C565.977 476.652 566.826 476.773 567.58 477.927Z" fill="#EDD4C6"/>
<path d="M568.948 480.539C568.948 481.268 568.712 481.815 568.476 481.815C568.193 481.815 568.005 482.24 568.005 482.726C568.005 483.212 567.675 483.637 567.297 483.637C566.92 483.637 566.59 483.212 566.59 482.726C566.59 482.24 566.826 481.815 567.062 481.815C567.344 481.815 567.533 481.329 567.439 480.782C567.344 480.175 567.627 479.628 568.099 479.506C568.712 479.385 568.948 479.689 568.948 480.539Z" fill="#EDD4C6"/>
<path d="M566.118 482.422C566.118 483.212 565.788 483.637 565.175 483.637C564.562 483.637 564.232 483.212 564.232 482.422C564.232 481.632 564.562 481.207 565.175 481.207C565.788 481.207 566.118 481.632 566.118 482.422Z" fill="#EDD4C6"/>
<path d="M557.866 483.029C558.008 483.333 557.819 483.637 557.395 483.637C556.97 483.637 556.782 483.333 556.923 483.029C557.064 482.665 557.3 482.422 557.395 482.422C557.489 482.422 557.725 482.665 557.866 483.029Z" fill="#EDD4C6"/>
</svg>
