<svg width="32" height="32" viewBox="0 0 32 32" fill="none" xmlns="http://www.w3.org/2000/svg">
<g clip-path="url(#clip0_505_217)">
<path d="M15.2381 2.884C19.3067 2.884 19.7892 2.9 21.3968 2.97733C25.5264 3.17467 27.4552 5.232 27.6432 9.536C27.7168 11.2227 27.7308 11.7293 27.7308 16.0013C27.7308 20.2747 27.7156 20.78 27.6432 22.4667C27.454 26.7667 25.5302 28.828 21.3968 29.0253C19.7892 29.1027 19.3092 29.1187 15.2381 29.1187C11.1695 29.1187 10.687 29.1027 9.08064 29.0253C4.94095 28.8267 3.02222 26.76 2.83429 22.4653C2.76064 20.7787 2.7454 20.2733 2.7454 16C2.7454 11.728 2.7619 11.2227 2.83429 9.53467C3.02349 5.232 4.9473 3.17333 9.08064 2.976C10.6883 2.9 11.1695 2.884 15.2381 2.884V2.884ZM15.2381 0C11.0997 0 10.5816 0.0186667 8.95619 0.096C3.42222 0.362667 0.346667 3.58667 0.0926984 9.40267C0.0177778 11.1107 0 11.6547 0 16C0 20.3453 0.0177778 20.8907 0.0914286 22.5973C0.345397 28.408 3.41587 31.6373 8.95492 31.904C10.5816 31.9813 11.0997 32 15.2381 32C19.3765 32 19.8959 31.9813 21.5213 31.904C27.0502 31.6373 30.1333 28.4133 30.3835 22.5973C30.4584 20.8907 30.4762 20.3453 30.4762 16C30.4762 11.6547 30.4584 11.1107 30.3848 9.404C30.1359 3.59867 27.0616 0.364 21.5225 0.0973333C19.8959 0.0186667 19.3765 0 15.2381 0V0ZM15.2381 7.784C10.9168 7.784 7.41333 11.4627 7.41333 16C7.41333 20.5373 10.9168 24.2173 15.2381 24.2173C19.5594 24.2173 23.0629 20.5387 23.0629 16C23.0629 11.4627 19.5594 7.784 15.2381 7.784ZM15.2381 21.3333C12.433 21.3333 10.1587 18.9467 10.1587 16C10.1587 13.0547 12.433 10.6667 15.2381 10.6667C18.0432 10.6667 20.3175 13.0547 20.3175 16C20.3175 18.9467 18.0432 21.3333 15.2381 21.3333ZM23.3727 5.54C22.3619 5.54 21.5429 6.4 21.5429 7.46C21.5429 8.52 22.3619 9.38 23.3727 9.38C24.3822 9.38 25.2 8.52 25.2 7.46C25.2 6.4 24.3822 5.54 23.3727 5.54Z" fill="black"/>
</g>
<defs>
<clipPath id="clip0_505_217">
<rect width="32" height="32" fill="white"/>
</clipPath>
</defs>
</svg>
