<svg width="160" height="85" viewBox="0 0 160 85" fill="none" xmlns="http://www.w3.org/2000/svg">
<path d="M36.9313 79.6317C36.3807 79.6317 35.899 79.5147 35.4861 79.2807C35.087 79.0605 34.8874 78.6682 34.8874 78.1039C34.8874 77.7461 34.9768 77.3469 35.1558 76.9065C35.4035 77.1818 35.6306 77.3745 35.8371 77.4846C36.0573 77.5947 36.2913 77.6497 36.539 77.6497C37.2272 77.6497 37.7364 77.2644 38.0667 76.4936C38.4108 75.7229 38.5829 74.8695 38.5829 73.9336C38.5829 72.1856 37.9291 71.3117 36.6216 71.3117C36.25 71.3117 35.9334 71.3323 35.6719 71.3736L33.979 79.2807H31.0061L33.8138 66.1504L36.8693 65.7375L35.899 70.3207H36.0229C36.5459 70.3207 37.0345 70.1555 37.4887 69.8252C37.9429 69.4811 38.3076 69.0545 38.5829 68.5452C38.8581 68.0222 38.9958 67.4992 38.9958 66.9762C38.9958 66.3431 38.7687 65.8132 38.3145 65.3865C37.874 64.9598 37.1928 64.7465 36.2706 64.7465C35.431 64.7465 34.6121 64.9392 33.8138 65.3246C33.0156 65.6962 32.3618 66.2605 31.8525 67.0175C31.3571 67.7745 31.1093 68.6897 31.1093 69.7633C31.1093 70.2725 31.1575 70.6304 31.2538 70.8368C31.3502 71.0295 31.3983 71.1396 31.3983 71.1672C30.6689 71.1672 30.1183 71.0226 29.7467 70.7336C29.3751 70.4308 29.1893 69.9422 29.1893 69.2678C29.1893 68.3319 29.5403 67.4441 30.2422 66.6046C30.9442 65.765 31.8732 65.0906 33.0293 64.5813C34.1854 64.0583 35.4035 63.7968 36.6835 63.7968C37.647 63.7968 38.459 63.9482 39.1196 64.251C39.7803 64.5538 40.2689 64.953 40.5854 65.4484C40.9158 65.9439 41.0809 66.4876 41.0809 67.0794C41.0809 67.7125 40.902 68.325 40.5442 68.9168C40.1863 69.5087 39.6771 69.9904 39.0164 70.362C39.8422 70.5134 40.4547 70.8988 40.8538 71.5181C41.253 72.1237 41.4525 72.8463 41.4525 73.6859C41.4525 74.4704 41.3011 75.3237 40.9984 76.2459C40.7093 77.168 40.2207 77.9663 39.5325 78.6407C38.8581 79.3013 37.991 79.6317 36.9313 79.6317ZM44.6448 79.4046C43.8603 79.4046 43.2065 79.1362 42.6835 78.5994C42.1605 78.0626 41.899 77.2231 41.899 76.0807C41.899 75.0622 42.0986 73.9955 42.4977 72.8807C42.9106 71.7521 43.5162 70.8024 44.3145 70.0317C45.1265 69.2472 46.09 68.8549 47.2048 68.8549C47.7691 68.8549 48.1889 68.9512 48.4642 69.1439C48.7394 69.3366 48.8771 69.5912 48.8771 69.9078V70.0523L49.1042 68.9581H52.0771L50.5906 75.9775C50.5356 76.1839 50.508 76.4041 50.508 76.6381C50.508 77.2299 50.7902 77.5259 51.3545 77.5259C51.7399 77.5259 52.0702 77.3469 52.3454 76.9891C52.6345 76.6312 52.8616 76.1633 53.0267 75.5852H53.8938C53.3846 77.0717 52.7515 78.0833 51.9945 78.6201C51.2513 79.1431 50.5011 79.4046 49.7442 79.4046C49.1661 79.4046 48.6981 79.2463 48.3403 78.9297C47.9962 78.5994 47.7897 78.1246 47.7209 77.5052C47.3218 78.0695 46.8745 78.5306 46.379 78.8884C45.8973 79.2325 45.3192 79.4046 44.6448 79.4046ZM45.9867 77.402C46.3308 77.402 46.668 77.2437 46.9983 76.9272C47.3424 76.5968 47.5764 76.1495 47.7003 75.5852L48.6913 70.9194C48.6913 70.7405 48.6224 70.5684 48.4848 70.4033C48.3472 70.2244 48.1338 70.1349 47.8448 70.1349C47.2943 70.1349 46.7988 70.4583 46.3583 71.1052C45.9179 71.7383 45.5738 72.5091 45.3261 73.4175C45.0783 74.3121 44.9545 75.1035 44.9545 75.7917C44.9545 76.4798 45.0508 76.9203 45.2435 77.113C45.45 77.3056 45.6977 77.402 45.9867 77.402ZM54.4382 68.9581H57.4111L57.1427 70.2381C57.6107 69.8252 58.0304 69.5087 58.4021 69.2884C58.7874 69.0682 59.2003 68.9581 59.6408 68.9581C60.0812 68.9581 60.4253 69.1095 60.673 69.4123C60.9345 69.7151 61.0653 70.0798 61.0653 70.5065C61.0653 70.9056 60.9345 71.2566 60.673 71.5594C60.4115 71.8622 60.0468 72.0136 59.5788 72.0136C59.276 72.0136 59.0696 71.9448 58.9595 71.8072C58.8631 71.6558 58.7874 71.4424 58.7324 71.1672C58.6911 70.9882 58.6498 70.8575 58.6085 70.7749C58.5672 70.6923 58.4915 70.651 58.3814 70.651C58.0924 70.651 57.8446 70.713 57.6382 70.8368C57.4455 70.9469 57.1909 71.1465 56.8743 71.4355L55.2227 79.2807H52.2498L54.4382 68.9581ZM63.5422 79.4046C62.6063 79.4046 61.8906 79.1775 61.3951 78.7233C60.8996 78.2553 60.6519 77.6016 60.6519 76.762C60.6519 76.3491 60.7001 75.9568 60.7964 75.5852L63.0054 65.242L66.0609 64.8291L65.07 69.4742C65.4553 69.2403 65.7719 69.0889 66.0196 69.0201C66.2674 68.9375 66.5151 68.8962 66.7629 68.8962C68.387 68.8962 69.199 70.073 69.199 72.4265C69.199 73.3762 69.0132 74.3947 68.6416 75.482C68.2837 76.5555 67.6781 77.4777 66.8248 78.2484C65.9852 79.0192 64.891 79.4046 63.5422 79.4046ZM64.6983 77.402C65.125 77.402 65.5242 77.1405 65.8958 76.6175C66.2674 76.0807 66.5633 75.4201 66.7835 74.6355C67.0037 73.8373 67.1138 73.0734 67.1138 72.3439C67.1138 71.7934 67.0175 71.3254 66.8248 70.9401C66.6321 70.5547 66.3637 70.362 66.0196 70.362C65.8132 70.362 65.5792 70.3964 65.3177 70.4652C65.07 70.5203 64.8979 70.6097 64.8016 70.7336L63.6661 75.9775C63.6248 76.1426 63.6042 76.3009 63.6042 76.4523C63.6042 77.0854 63.9689 77.402 64.6983 77.402ZM72.9221 79.4046C71.9036 79.4046 71.1122 79.1431 70.5479 78.6201C69.9836 78.0833 69.7014 77.2506 69.7014 76.122C69.7014 75.1723 69.8872 74.1263 70.2588 72.9839C70.6304 71.8416 71.236 70.8575 72.0756 70.0317C72.9152 69.1921 73.9818 68.7723 75.2756 68.7723C76.7896 68.7723 77.5466 69.433 77.5466 70.7542C77.5466 71.525 77.3264 72.2338 76.8859 72.8807C76.4455 73.5276 75.8606 74.0506 75.1311 74.4497C74.4016 74.8351 73.624 75.0553 72.7982 75.1104C72.7707 75.5233 72.7569 75.7985 72.7569 75.9362C72.7569 76.6106 72.8739 77.0717 73.1079 77.3194C73.3418 77.5534 73.7203 77.6704 74.2434 77.6704C74.9866 77.6704 75.6197 77.4983 76.1427 77.1542C76.6795 76.8102 77.2644 76.2872 77.8975 75.5852H78.5995C77.0717 78.1315 75.1793 79.4046 72.9221 79.4046ZM72.9634 74.1194C73.4726 74.0919 73.9543 73.913 74.4085 73.5826C74.8765 73.2523 75.2481 72.8325 75.5234 72.3233C75.8124 71.814 75.9569 71.2773 75.9569 70.713C75.9569 70.1487 75.7849 69.8665 75.4408 69.8665C74.9453 69.8665 74.4567 70.3001 73.975 71.1672C73.507 72.0342 73.1698 73.0183 72.9634 74.1194ZM79.2971 68.9581H82.27L82.0016 70.2381C82.4695 69.8252 82.8893 69.5087 83.2609 69.2884C83.6463 69.0682 84.0592 68.9581 84.4996 68.9581C84.9401 68.9581 85.2842 69.1095 85.5319 69.4123C85.7934 69.7151 85.9242 70.0798 85.9242 70.5065C85.9242 70.9056 85.7934 71.2566 85.5319 71.5594C85.2704 71.8622 84.9057 72.0136 84.4377 72.0136C84.1349 72.0136 83.9285 71.9448 83.8184 71.8072C83.722 71.6558 83.6463 71.4424 83.5913 71.1672C83.55 70.9882 83.5087 70.8575 83.4674 70.7749C83.4261 70.6923 83.3504 70.651 83.2403 70.651C82.9513 70.651 82.7035 70.713 82.4971 70.8368C82.3044 70.9469 82.0497 71.1465 81.7332 71.4355L80.0816 79.2807H77.1087L79.2971 68.9581ZM95.1892 79.6523C94.3221 79.6523 93.5582 79.5009 92.8975 79.1981C92.2369 78.8953 91.7277 78.4755 91.3698 77.9388C91.012 77.3882 90.833 76.7551 90.833 76.0394C90.833 75.4338 90.9569 74.8833 91.2046 74.3878C91.4661 73.8923 91.8102 73.5001 92.2369 73.211C92.6773 72.922 93.159 72.7775 93.6821 72.7775C94.1638 72.7775 94.5698 72.9013 94.9001 73.1491C95.2304 73.3831 95.4369 73.7134 95.5195 74.1401C94.8038 74.1401 94.2326 74.3327 93.8059 74.7181C93.3793 75.0897 93.1659 75.599 93.1659 76.2459C93.1659 76.8377 93.3449 77.3125 93.7027 77.6704C94.0606 78.0282 94.5354 78.2072 95.1272 78.2072C95.8567 78.2072 96.4554 77.9663 96.9234 77.4846C97.4051 76.9891 97.6459 76.3697 97.6459 75.6265C97.6459 74.9796 97.467 74.3672 97.1092 73.7891C96.7513 73.211 96.2145 72.5091 95.4988 71.6833C94.7556 70.8299 94.1913 70.1005 93.8059 69.4949C93.4343 68.8755 93.2485 68.2011 93.2485 67.4717C93.2485 66.756 93.4481 66.116 93.8472 65.5517C94.2464 64.9736 94.7969 64.5194 95.4988 64.1891C96.2008 63.8588 96.9922 63.6936 97.873 63.6936C98.9879 63.6936 99.8756 63.9551 100.536 64.4781C101.211 65.0011 101.548 65.7031 101.548 66.5839C101.548 67.162 101.403 67.6299 101.114 67.9878C100.825 68.3456 100.447 68.5246 99.9788 68.5246C99.4558 68.5246 99.036 68.3112 98.7195 67.8846C98.981 67.6919 99.1874 67.4373 99.3388 67.1207C99.4902 66.8041 99.5659 66.4738 99.5659 66.1297C99.5659 65.6893 99.4352 65.3383 99.1737 65.0768C98.9122 64.8153 98.5543 64.6846 98.1001 64.6846C97.5496 64.6846 97.0954 64.8841 96.7375 65.2833C96.3935 65.6687 96.2214 66.1641 96.2214 66.7697C96.2214 67.3203 96.3797 67.8364 96.6963 68.3181C97.0128 68.7861 97.5083 69.3917 98.1827 70.1349C98.7332 70.7267 99.1737 71.236 99.504 71.6626C99.8481 72.0893 100.137 72.5848 100.371 73.1491C100.619 73.6996 100.743 74.2983 100.743 74.9452C100.743 75.8261 100.495 76.6244 99.9995 77.3401C99.5178 78.0558 98.8502 78.6201 97.9969 79.033C97.1573 79.4459 96.2214 79.6523 95.1892 79.6523ZM109.358 79.4046C108.519 79.4046 107.899 79.1844 107.5 78.7439C107.115 78.2897 106.922 77.7323 106.922 77.0717C106.922 76.7826 106.956 76.4592 107.025 76.1013C107.094 75.7297 107.163 75.3719 107.232 75.0278C107.314 74.6837 107.369 74.4635 107.397 74.3672C107.507 73.8854 107.61 73.4106 107.707 72.9426C107.803 72.4747 107.851 72.0962 107.851 71.8072C107.851 71.1052 107.603 70.7542 107.108 70.7542C106.75 70.7542 106.433 70.9332 106.158 71.291C105.883 71.6351 105.663 72.0893 105.498 72.6536L104.094 79.2807H101.121L104.114 65.242L107.17 64.8291L106.055 70.0317C106.743 69.2609 107.548 68.8755 108.47 68.8755C109.172 68.8755 109.73 69.0682 110.143 69.4536C110.556 69.839 110.762 70.4239 110.762 71.2084C110.762 71.6076 110.714 72.0549 110.618 72.5504C110.521 73.0321 110.384 73.6239 110.205 74.3259C110.095 74.7525 109.991 75.1723 109.895 75.5852C109.812 75.9844 109.771 76.3009 109.771 76.5349C109.771 76.8102 109.833 77.0235 109.957 77.1749C110.081 77.3263 110.294 77.402 110.597 77.402C111.01 77.402 111.34 77.2575 111.588 76.9684C111.836 76.6656 112.083 76.2046 112.331 75.5852H113.198C112.689 77.0992 112.097 78.1177 111.423 78.6407C110.762 79.1499 110.074 79.4046 109.358 79.4046ZM115.343 79.3633C114.324 79.3633 113.519 79.1018 112.927 78.5788C112.336 78.0558 112.04 77.2299 112.04 76.1013C112.04 75.1654 112.232 74.1263 112.618 72.9839C113.003 71.8416 113.622 70.8575 114.476 70.0317C115.329 69.1921 116.403 68.7723 117.696 68.7723C119.458 68.7723 120.339 69.8734 120.339 72.0755V72.0962C120.38 72.1099 120.456 72.1168 120.566 72.1168C121.02 72.1168 121.543 71.9998 122.135 71.7659C122.727 71.5181 123.264 71.2222 123.745 70.8781L123.931 71.4355C123.532 71.8622 123.009 72.2269 122.362 72.5297C121.729 72.8188 121.034 73.0252 120.277 73.1491C120.167 74.4016 119.885 75.4958 119.431 76.4317C118.976 77.3676 118.391 78.0902 117.676 78.5994C116.96 79.1087 116.182 79.3633 115.343 79.3633ZM116.169 77.5052C116.499 77.5052 116.829 77.3194 117.16 76.9478C117.49 76.5624 117.779 76.0463 118.027 75.3994C118.274 74.7388 118.453 74.0093 118.564 73.211C118.192 73.1284 118.006 72.8394 118.006 72.3439C118.006 71.7796 118.219 71.408 118.646 71.2291C118.619 70.7749 118.55 70.4652 118.44 70.3001C118.33 70.1211 118.137 70.0317 117.862 70.0317C117.407 70.0317 116.967 70.362 116.54 71.0226C116.114 71.6833 115.77 72.4747 115.508 73.3968C115.247 74.319 115.116 75.131 115.116 75.833C115.116 76.4936 115.191 76.9409 115.343 77.1749C115.494 77.3951 115.77 77.5052 116.169 77.5052ZM122.97 68.1942H125.943L125.613 69.7426C126.301 69.1508 127.106 68.8549 128.028 68.8549C128.799 68.8549 129.412 69.1095 129.866 69.6188C130.32 70.128 130.547 70.9607 130.547 72.1168C130.547 73.2041 130.389 74.3052 130.072 75.4201C129.756 76.5211 129.219 77.4639 128.462 78.2484C127.705 79.0192 126.707 79.4046 125.468 79.4046C124.587 79.4046 124.003 79.1568 123.714 78.6613L122.64 83.6988L119.523 84.442L122.97 68.1942ZM124.828 77.6084C125.489 77.6084 126.033 77.2988 126.459 76.6794C126.9 76.0601 127.216 75.3237 127.409 74.4704C127.615 73.6033 127.719 72.7981 127.719 72.0549C127.719 70.9125 127.375 70.3413 126.686 70.3413C126.439 70.3413 126.184 70.4308 125.923 70.6097C125.675 70.7887 125.455 71.0364 125.262 71.353L124.044 77.1336C124.154 77.4502 124.415 77.6084 124.828 77.6084Z" fill="white"/>
<path d="M14.0903 58.5717L9.19226 49.6813H7.81678V58.5717H2.08V35.0207H11.7084C13.5647 35.0207 15.1415 35.345 16.4387 35.9936C17.7583 36.6422 18.7424 37.5368 19.391 38.6775C20.0396 39.7957 20.3639 41.0482 20.3639 42.4349C20.3639 44.0005 19.9166 45.3983 19.0219 46.6284C18.1497 47.8585 16.8525 48.7308 15.1303 49.2452L20.5652 58.5717H14.0903ZM7.81678 45.622H11.3729C12.4241 45.622 13.2069 45.3648 13.7213 44.8504C14.2581 44.336 14.5265 43.6091 14.5265 42.6697C14.5265 41.7751 14.2581 41.0706 13.7213 40.5562C13.2069 40.0418 12.4241 39.7846 11.3729 39.7846H7.81678V45.622ZM29.7019 39.6168V44.3807H37.3844V48.8091H29.7019V53.9755H38.3909V58.5717H23.9651V35.0207H38.3909V39.6168H29.7019ZM60.0637 42.6026C60.0637 43.9669 59.7506 45.2194 59.1243 46.36C58.4981 47.4783 57.5364 48.3841 56.2392 49.0775C54.942 49.7708 53.3316 50.1175 51.4082 50.1175H47.8521V58.5717H42.1153V35.0207H51.4082C53.2869 35.0207 54.8749 35.345 56.1721 35.9936C57.4693 36.6422 58.4422 37.5368 59.0908 38.6775C59.7394 39.8181 60.0637 41.1265 60.0637 42.6026ZM50.9721 45.5549C52.068 45.5549 52.8843 45.2977 53.4211 44.7833C53.9579 44.2689 54.2263 43.542 54.2263 42.6026C54.2263 41.6633 53.9579 40.9364 53.4211 40.422C52.8843 39.9076 52.068 39.6504 50.9721 39.6504H47.8521V45.5549H50.9721ZM68.6864 35.0207V49.111C68.6864 50.52 69.0331 51.6048 69.7264 52.3652C70.4197 53.1256 71.4374 53.5058 72.7793 53.5058C74.1212 53.5058 75.1501 53.1256 75.8658 52.3652C76.5815 51.6048 76.9393 50.52 76.9393 49.111V35.0207H82.6761V49.0775C82.6761 51.1798 82.2288 52.9579 81.3341 54.4117C80.4395 55.8654 79.2318 56.9613 77.7109 57.6994C76.2124 58.4375 74.535 58.8065 72.6787 58.8065C70.8223 58.8065 69.1561 58.4486 67.6799 57.7329C66.2262 56.9949 65.0744 55.899 64.2245 54.4452C63.3746 52.9691 62.9496 51.1798 62.9496 49.0775V35.0207H68.6864ZM100.963 46.4942C102.327 46.785 103.423 47.4671 104.25 48.5407C105.078 49.5919 105.492 50.7996 105.492 52.1639C105.492 54.1321 104.798 55.6977 103.412 56.8607C102.047 58.0013 100.135 58.5717 97.6748 58.5717H86.7045V35.0207H97.3058C99.6989 35.0207 101.566 35.5686 102.908 36.6646C104.273 37.7605 104.955 39.2478 104.955 41.1265C104.955 42.5132 104.586 43.665 103.848 44.582C103.132 45.499 102.17 46.1364 100.963 46.4942ZM92.4413 44.5484H96.1987C97.1381 44.5484 97.8538 44.3471 98.3458 43.9446C98.8602 43.5196 99.1174 42.9046 99.1174 42.0994C99.1174 41.2942 98.8602 40.6792 98.3458 40.2542C97.8538 39.8293 97.1381 39.6168 96.1987 39.6168H92.4413V44.5484ZM96.6684 53.942C97.6301 53.942 98.3682 53.7295 98.8826 53.3046C99.4193 52.8572 99.6877 52.2198 99.6877 51.3923C99.6877 50.5648 99.4082 49.9162 98.849 49.4465C98.3122 48.9768 97.563 48.742 96.6013 48.742H92.4413V53.942H96.6684ZM114.556 54.1433H122.071V58.5717H108.819V35.0207H114.556V54.1433ZM130.544 35.0207V58.5717H124.807V35.0207H130.544ZM133.728 46.7626C133.728 44.4366 134.231 42.3678 135.238 40.5562C136.244 38.7222 137.642 37.302 139.431 36.2955C141.243 35.2667 143.289 34.7523 145.571 34.7523C148.366 34.7523 150.759 35.4904 152.75 36.9665C154.741 38.4426 156.071 40.4555 156.742 43.0052H150.435C149.965 42.0211 149.295 41.2719 148.422 40.7575C147.572 40.2431 146.599 39.9858 145.504 39.9858C143.737 39.9858 142.305 40.6009 141.209 41.831C140.113 43.0611 139.565 44.705 139.565 46.7626C139.565 48.8203 140.113 50.4641 141.209 51.6942C142.305 52.9243 143.737 53.5394 145.504 53.5394C146.599 53.5394 147.572 53.2822 148.422 52.7678C149.295 52.2534 149.965 51.5041 150.435 50.52H156.742C156.071 53.0697 154.741 55.0826 152.75 56.5588C150.759 58.0125 148.366 58.7394 145.571 58.7394C143.289 58.7394 141.243 58.2362 139.431 57.2297C137.642 56.2009 136.244 54.7807 135.238 52.9691C134.231 51.1575 133.728 49.0886 133.728 46.7626Z" fill="white"/>
<path d="M133.702 1.86206C133.215 1.05316 131.985 0.607001 130.715 0.778464C129.438 0.949781 128.554 1.68214 128.565 2.55797L128.565 2.57941C128.565 7.05552 123.152 10.6971 116.498 10.6971C112.453 10.6971 108.696 9.34315 106.449 7.07521C106.441 7.06675 106.432 7.05829 106.423 7.04998L105.928 6.57511C105.917 6.56402 105.905 6.55294 105.892 6.5423C102.52 3.51458 97.1498 1.78246 91.5263 1.91572C87.4217 2.01122 83.4989 3.118 80.4837 4.99753C77.4685 3.118 73.5456 2.01122 69.4411 1.91572C63.8222 1.78231 58.4472 3.51458 55.0749 6.5423C55.0627 6.55323 55.051 6.56402 55.0393 6.57511L54.5443 7.04998C54.5356 7.05844 54.5272 7.0669 54.5183 7.07521C52.2712 9.34315 48.5145 10.6971 44.4692 10.6971C37.8155 10.6971 32.4019 7.05552 32.4019 2.57941V2.559C32.4138 1.68229 31.5295 0.949928 30.2519 0.77832C28.9805 0.607148 27.7525 1.05315 27.2653 1.86163C25.7625 4.35717 25 6.99895 25 9.71393C25 15.3223 28.3067 20.6027 34.3111 24.5823C40.3185 28.5638 48.2207 30.7063 56.5621 30.6266C65.9547 30.5324 74.7096 27.5936 80.4837 22.6782C86.2577 27.5936 95.0129 30.5324 104.405 30.6266C104.562 30.6282 104.718 30.629 104.875 30.629C113.043 30.629 120.762 28.489 126.656 24.5823C132.661 20.6027 135.968 15.3222 135.968 9.71393C135.968 6.99895 135.205 4.35717 133.702 1.86206ZM123.953 22.7364C118.686 26.2267 111.759 28.1036 104.463 28.0357C95.4279 27.9451 87.0654 24.8492 82.0938 19.7541C81.7379 19.3895 81.1326 19.1695 80.4837 19.1695C79.8348 19.1695 79.2296 19.3892 78.8735 19.7541C73.9017 24.8489 65.5392 27.945 56.5047 28.0357C49.2003 28.1032 42.2811 26.2268 37.0142 22.7364C31.7508 19.2478 28.852 14.6228 28.852 9.71393C28.852 8.46615 29.0356 7.23646 29.3997 6.0336C31.5406 10.2489 37.4876 13.2884 44.4694 13.2884C49.7976 13.2884 54.7456 11.5083 57.7106 8.52622L58.1755 8.08036C60.7938 5.74025 64.9542 4.4031 69.3084 4.5053C73.0334 4.59206 76.5701 5.75862 79.012 7.7058C79.3779 7.99755 79.9167 8.16609 80.4843 8.16609C81.0519 8.16609 81.5905 7.99769 81.9566 7.7058C84.3983 5.75862 87.9352 4.59206 91.66 4.5053C96.0204 4.40616 100.174 5.74039 102.793 8.08036L103.258 8.52622C106.223 11.5086 111.171 13.2884 116.499 13.2884C123.481 13.2884 129.428 10.2489 131.569 6.0336C131.933 7.23617 132.116 8.46601 132.116 9.71393C132.116 14.6228 129.217 19.2478 123.953 22.7364Z" fill="white"/>
<path d="M5.16125 72.4012H23.2258V73.9582H5.16125V72.4012Z" fill="#E5E5E5"/>
<path d="M139.355 72.4012H157.419V73.9582H139.355V72.4012Z" fill="#E5E5E5"/>
</svg>
